<svg width="20" height="20" viewBox="0 0 20 20" fill="none" xmlns="http://www.w3.org/2000/svg">
<path d="M10.0001 8.56598C9.15013 8.56598 8.30013 8.41598 7.49179 8.12431C7.16679 8.00764 7.00013 7.64931 7.11679 7.32431C7.24179 6.99931 7.60013 6.83264 7.92513 6.94931C9.26679 7.43264 10.7418 7.43264 12.0835 6.94931C12.4085 6.83264 12.7668 6.99931 12.8835 7.32431C13.0001 7.64931 12.8335 8.00764 12.5085 8.12431C11.7001 8.41598 10.8501 8.56598 10.0001 8.56598Z" fill="black"/>
<path d="M15.8916 18.9577C15.4666 18.9577 14.9999 18.8327 14.5499 18.5744L10.4833 16.316C10.2416 16.1827 9.7666 16.1827 9.52494 16.316L5.45827 18.5744C4.63327 19.0327 3.7916 19.0827 3.14993 18.6994C2.50827 18.3244 2.1416 17.566 2.1416 16.6244V4.88268C2.1416 2.76602 3.8666 1.04102 5.98327 1.04102H14.0249C16.1416 1.04102 17.8666 2.76602 17.8666 4.88268V16.6244C17.8666 17.566 17.4999 18.3244 16.8583 18.6994C16.5666 18.8743 16.2333 18.9577 15.8916 18.9577ZM9.99994 14.966C10.3916 14.966 10.7749 15.0493 11.0833 15.2243L15.1499 17.4827C15.5749 17.7243 15.9666 17.7743 16.2166 17.6243C16.4666 17.4743 16.6083 17.116 16.6083 16.6244V4.88268C16.6083 3.45768 15.4416 2.29102 14.0166 2.29102H5.98327C4.55827 2.29102 3.3916 3.45768 3.3916 4.88268V16.6244C3.3916 17.116 3.53327 17.4827 3.78327 17.6243C4.03327 17.766 4.4166 17.7243 4.84994 17.4827L8.9166 15.2243C9.22494 15.0493 9.60827 14.966 9.99994 14.966Z" fill="black"/>
<path d="M15.8916 18.9577C15.4666 18.9577 14.9999 18.8327 14.5499 18.5744L10.4833 16.316C10.2416 16.1827 9.7666 16.1827 9.52494 16.316L5.45827 18.5744C4.63327 19.0327 3.7916 19.0827 3.14993 18.6994C2.50827 18.3244 2.1416 17.566 2.1416 16.6244V4.88268C2.1416 2.76602 3.8666 1.04102 5.98327 1.04102H14.0249C16.1416 1.04102 17.8666 2.76602 17.8666 4.88268V16.6244C17.8666 17.566 17.4999 18.3244 16.8583 18.6994C16.5666 18.8743 16.2333 18.9577 15.8916 18.9577ZM9.99994 14.966C10.3916 14.966 10.7749 15.0493 11.0833 15.2243L15.1499 17.4827C15.5749 17.7243 15.9666 17.7743 16.2166 17.6243C16.4666 17.4743 16.6083 17.116 16.6083 16.6244V4.88268C16.6083 3.45768 15.4416 2.29102 14.0166 2.29102H5.98327C4.55827 2.29102 3.3916 3.45768 3.3916 4.88268V16.6244C3.3916 17.116 3.53327 17.4827 3.78327 17.6243C4.03327 17.766 4.4166 17.7243 4.84994 17.4827L8.9166 15.2243C9.22494 15.0493 9.60827 14.966 9.99994 14.966Z" fill="black"/>
</svg>
