<svg width="25" height="26" viewBox="0 0 25 26" fill="none" xmlns="http://www.w3.org/2000/svg">
<path d="M5.26879 11.7557C5.26879 10.8717 5.4429 9.9964 5.78118 9.17973C6.11946 8.36305 6.61528 7.62101 7.24033 6.99595C7.86539 6.3709 8.60743 5.87508 9.42411 5.5368C10.2408 5.19852 11.1161 5.02441 12 5.02441C12.884 5.02441 13.7593 5.19852 14.576 5.5368C15.3927 5.87508 16.1347 6.3709 16.7598 6.99595C17.3848 7.62101 17.8806 8.36305 18.2189 9.17973C18.5572 9.9964 18.7313 10.8717 18.7313 11.7557V11.7557C18.7313 15.1119 19.4344 17.0619 20.0532 18.1307C20.1189 18.2445 20.1535 18.3736 20.1537 18.505C20.1538 18.6364 20.1193 18.7656 20.0538 18.8795C19.9883 18.9935 19.894 19.0882 19.7804 19.1542C19.6667 19.2202 19.5377 19.2552 19.4063 19.2557H4.59379C4.46237 19.2552 4.33337 19.2202 4.21972 19.1542C4.10607 19.0882 4.01177 18.9935 3.94626 18.8795C3.88074 18.7656 3.84632 18.6364 3.84644 18.505C3.84655 18.3736 3.8812 18.2445 3.94692 18.1307C4.56567 17.0619 5.26879 15.1119 5.26879 11.7557Z" stroke="#191C1F" stroke-width="1.5" stroke-linecap="round" stroke-linejoin="round"/>
<path d="M9 19.2559V20.0059C9 20.8015 9.31607 21.5646 9.87868 22.1272C10.4413 22.6898 11.2044 23.0059 12 23.0059C12.7956 23.0059 13.5587 22.6898 14.1213 22.1272C14.6839 21.5646 15 20.8015 15 20.0059V19.2559" stroke="#191C1F" stroke-width="1.5" stroke-linecap="round" stroke-linejoin="round"/>
<path d="M17.1938 3.50586C18.7209 4.46981 19.9534 5.83524 20.7563 7.45273" stroke="#191C1F" stroke-width="1.5" stroke-linecap="round" stroke-linejoin="round"/>
<path d="M3.24365 7.45273C4.04664 5.83524 5.2791 4.46981 6.80615 3.50586" stroke="#191C1F" stroke-width="1.5" stroke-linecap="round" stroke-linejoin="round"/>
<circle cx="18" cy="7.25586" r="5.9" fill="#EE5858" stroke="white" stroke-width="1.8"/>
</svg>
