<svg width="20" height="20" viewBox="0 0 20 20" fill="none" xmlns="http://www.w3.org/2000/svg">
<path d="M14.7835 18.959H5.21683C3.14183 18.959 1.4585 17.2756 1.4585 15.2006V9.59233C1.4585 7.51733 3.14183 5.83398 5.21683 5.83398H14.7835C16.8585 5.83398 18.5418 7.51733 18.5418 9.59233V10.7923C18.5418 11.134 18.2585 11.4173 17.9168 11.4173H16.2335C15.9418 11.4173 15.6752 11.5257 15.4835 11.7257L15.4752 11.734C15.2418 11.959 15.1335 12.2673 15.1585 12.584C15.2085 13.134 15.7335 13.5756 16.3335 13.5756H17.9168C18.2585 13.5756 18.5418 13.859 18.5418 14.2006V15.1923C18.5418 17.2756 16.8585 18.959 14.7835 18.959ZM5.21683 7.08398C3.8335 7.08398 2.7085 8.20899 2.7085 9.59233V15.2006C2.7085 16.584 3.8335 17.709 5.21683 17.709H14.7835C16.1668 17.709 17.2918 16.584 17.2918 15.2006V14.834H16.3335C15.0752 14.834 14.0085 13.9006 13.9085 12.7006C13.8418 12.0173 14.0918 11.3423 14.5918 10.8507C15.0252 10.409 15.6085 10.1673 16.2335 10.1673H17.2918V9.59233C17.2918 8.20899 16.1668 7.08398 14.7835 7.08398H5.21683Z" fill="black"/>
<path d="M2.0835 10.966C1.74183 10.966 1.4585 10.6827 1.4585 10.341V6.53273C1.4585 5.29107 2.24183 4.16602 3.40016 3.72435L10.0168 1.22435C10.7002 0.96602 11.4585 1.05773 12.0502 1.47439C12.6502 1.89106 13.0002 2.56605 13.0002 3.29105V6.45771C13.0002 6.79938 12.7168 7.08271 12.3752 7.08271C12.0335 7.08271 11.7502 6.79938 11.7502 6.45771V3.29105C11.7502 2.97439 11.6002 2.68271 11.3335 2.49938C11.0668 2.31604 10.7502 2.27437 10.4502 2.39104L3.8335 4.89104C3.1585 5.14937 2.70016 5.80773 2.70016 6.53273V10.341C2.7085 10.691 2.42516 10.966 2.0835 10.966Z" fill="black"/>
<path d="M16.3331 14.8327C15.0747 14.8327 14.0081 13.8993 13.9081 12.6993C13.8414 12.0077 14.0914 11.3327 14.5914 10.841C15.0164 10.4077 15.5997 10.166 16.2247 10.166H17.9581C18.7831 10.191 19.4164 10.841 19.4164 11.641V13.3577C19.4164 14.1577 18.7831 14.8077 17.9831 14.8327H16.3331ZM17.9414 11.416H16.2331C15.9414 11.416 15.6747 11.5243 15.4831 11.7243C15.2414 11.9577 15.1247 12.2743 15.1581 12.591C15.2081 13.141 15.7331 13.5827 16.3331 13.5827H17.9664C18.0747 13.5827 18.1747 13.4827 18.1747 13.3577V11.641C18.1747 11.516 18.0747 11.4243 17.9414 11.416Z" fill="black"/>
<path d="M11.6668 10.625H5.8335C5.49183 10.625 5.2085 10.3417 5.2085 10C5.2085 9.65833 5.49183 9.375 5.8335 9.375H11.6668C12.0085 9.375 12.2918 9.65833 12.2918 10C12.2918 10.3417 12.0085 10.625 11.6668 10.625Z" fill="black"/>
</svg>
