<svg width="29" height="22" viewBox="0 0 29 22" fill="none" xmlns="http://www.w3.org/2000/svg">
<path fill-rule="evenodd" clip-rule="evenodd" d="M8.8405 8.08379H6.90141L5.44732 2.98505C5.3783 2.75051 5.23176 2.54316 5.0162 2.44544C4.47824 2.19985 3.88545 2.0044 3.23877 1.90582V1.70952H6.3625C6.79363 1.70952 7.11697 2.0044 7.17086 2.34686L7.92532 6.02475L9.86347 1.70952H11.7487L8.8405 8.08379ZM12.8265 8.08379H10.9951L12.5031 1.70952H14.3344L12.8265 8.08379ZM16.7037 3.47538C16.7576 3.13206 17.081 2.93576 17.4582 2.93576C18.051 2.88647 18.6967 2.98505 19.2356 3.22979L19.559 1.85738C19.0201 1.66108 18.4273 1.5625 17.8893 1.5625C16.1119 1.5625 14.8185 2.44543 14.8185 3.67083C14.8185 4.60305 15.7347 5.09253 16.3813 5.3874C17.081 5.68143 17.3504 5.87773 17.2965 6.17176C17.2965 6.6128 16.7576 6.8091 16.2197 6.8091C15.573 6.8091 14.9263 6.66209 14.3345 6.4165L14.0111 7.78976C14.6578 8.0345 15.3574 8.13307 16.0041 8.13307C17.9971 8.18151 19.2356 7.29943 19.2356 5.97546C19.2356 4.30817 16.7037 4.21044 16.7037 3.47538ZM25.6448 8.08379L24.1907 1.70952H22.6288C22.3055 1.70952 21.9821 1.90582 21.8743 2.19985L19.1817 8.08379H21.0669L21.4432 7.15242H23.7595L23.9751 8.08379H25.6448ZM22.8982 3.42612L23.4362 5.82847H21.9282L22.8982 3.42612Z" fill="#172B85"/>
<path d="M17.396 11.125C19.9718 11.125 22.0601 13.3356 22.0601 16.0625C22.0601 18.7894 19.9718 21 17.396 21C16.2411 20.9999 15.1851 20.5545 14.3706 19.8184C13.5562 20.5542 12.5008 20.9999 11.3462 21C8.77043 21 6.68213 18.7894 6.68213 16.0625C6.68213 13.3356 8.77043 11.125 11.3462 11.125C12.5006 11.1251 13.5562 11.5701 14.3706 12.3057C15.185 11.5698 16.2413 11.1251 17.396 11.125Z" fill="#ED0006"/>
<path d="M17.3965 11.125C19.9721 11.1251 22.0605 13.3357 22.0605 16.0625C22.0605 18.7893 19.9721 20.9999 17.3965 21C16.2416 21 15.1856 20.5544 14.3711 19.8184C15.3733 18.9127 16.0098 17.5668 16.0098 16.0625C16.0098 14.558 15.3735 13.2113 14.3711 12.3057C15.1856 11.5699 16.2418 11.125 17.3965 11.125Z" fill="#F9A000"/>
<path d="M14.3711 12.3066C15.3733 13.2122 16.0097 14.5583 16.0098 16.0625C16.0098 17.5667 15.3732 18.9127 14.3711 19.8184C13.369 18.9127 12.7324 17.5667 12.7324 16.0625C12.7325 14.5583 13.3689 13.2122 14.3711 12.3066Z" fill="#FF5E00"/>
</svg>
