<svg width="20" height="20" viewBox="0 0 20 20" fill="none" xmlns="http://www.w3.org/2000/svg">
<path d="M9.99984 18.9577C5.05817 18.9577 1.0415 14.941 1.0415 9.99935C1.0415 5.05768 5.05817 1.04102 9.99984 1.04102C14.9415 1.04102 18.9582 5.05768 18.9582 9.99935C18.9582 14.941 14.9415 18.9577 9.99984 18.9577ZM9.99984 2.29102C5.74984 2.29102 2.2915 5.74935 2.2915 9.99935C2.2915 14.2493 5.74984 17.7077 9.99984 17.7077C14.2498 17.7077 17.7082 14.2493 17.7082 9.99935C17.7082 5.74935 14.2498 2.29102 9.99984 2.29102Z" fill="black"/>
<path d="M7.5002 18.125H6.66686C6.3252 18.125 6.04186 17.8417 6.04186 17.5C6.04186 17.1583 6.30853 16.8833 6.6502 16.875C5.34186 12.4083 5.34186 7.59167 6.6502 3.125C6.30853 3.11667 6.04186 2.84167 6.04186 2.5C6.04186 2.15833 6.3252 1.875 6.66686 1.875H7.5002C7.7002 1.875 7.89186 1.975 8.00853 2.13333C8.1252 2.3 8.15853 2.50833 8.09186 2.7C6.5252 7.40833 6.5252 12.5917 8.09186 17.3083C8.15853 17.5 8.1252 17.7083 8.00853 17.875C7.89186 18.025 7.7002 18.125 7.5002 18.125Z" fill="black"/>
<path d="M12.5 18.1243C12.4333 18.1243 12.3667 18.1159 12.3 18.0909C11.975 17.9826 11.7917 17.6243 11.9083 17.2993C13.475 12.5909 13.475 7.40759 11.9083 2.69092C11.8 2.36592 11.975 2.00759 12.3 1.89925C12.6333 1.79092 12.9833 1.96592 13.0917 2.29092C14.75 7.25759 14.75 12.7243 13.0917 17.6826C13.0083 17.9576 12.7583 18.1243 12.5 18.1243Z" fill="black"/>
<path d="M10 14.334C7.675 14.334 5.35833 14.009 3.125 13.3506C3.11667 13.684 2.84167 13.959 2.5 13.959C2.15833 13.959 1.875 13.6756 1.875 13.334V12.5006C1.875 12.3006 1.975 12.109 2.13333 11.9923C2.3 11.8756 2.50833 11.8423 2.7 11.909C7.40833 13.4756 12.6 13.4756 17.3083 11.909C17.5 11.8423 17.7083 11.8756 17.875 11.9923C18.0417 12.109 18.1333 12.3006 18.1333 12.5006V13.334C18.1333 13.6756 17.85 13.959 17.5083 13.959C17.1667 13.959 16.8917 13.6923 16.8833 13.3506C14.6417 14.009 12.325 14.334 10 14.334Z" fill="black"/>
<path d="M17.5001 8.12448C17.4335 8.12448 17.3668 8.11615 17.3001 8.09115C12.5918 6.52448 7.40015 6.52448 2.69181 8.09115C2.35848 8.19948 2.00848 8.02448 1.90015 7.69948C1.80015 7.36615 1.97515 7.01615 2.30015 6.90781C7.26681 5.24948 12.7335 5.24948 17.6918 6.90781C18.0168 7.01615 18.2001 7.37448 18.0835 7.69948C18.0085 7.95781 17.7585 8.12448 17.5001 8.12448Z" fill="black"/>
</svg>
