<?xml version="1.0" encoding="UTF-8"?> <svg xmlns="http://www.w3.org/2000/svg" width="24" height="24" viewBox="0 0 24 24" fill="none"><g clip-path="url(#clip0_19_9)"><path d="M10.707 11.293C10.3165 10.9025 9.68336 10.9025 9.29283 11.293C8.90231 11.6835 8.90231 12.3167 9.29283 12.7072L10.707 11.293ZM11.9999 14.0001L11.2928 14.7072C11.4978 14.9122 11.7816 15.0181 12.0708 14.9976C12.36 14.977 12.626 14.832 12.7999 14.6001L11.9999 14.0001ZM15.7999 10.6001C16.1313 10.1583 16.0417 9.53149 15.5999 9.20012C15.1581 8.86875 14.5313 8.95829 14.1999 9.40012L15.7999 10.6001ZM4.13951 6.91419C7.24484 6.46275 10.5042 4.32119 11.8664 3.34719L10.7032 1.72028C9.34119 2.69413 6.43095 4.56005 3.85179 4.935L4.13951 6.91419ZM12.0262 3.36295C13.2903 4.41565 16.253 6.56388 19.898 6.94248L20.1046 4.95319C17.0616 4.63712 14.4791 2.80298 13.3061 1.8261L12.0262 3.36295ZM2.01633 7.03779C2.21288 13.1798 4.15043 17.0468 6.30346 19.4411C8.44228 21.8196 10.7222 22.666 11.499 22.8996L12.0749 20.9844C11.5272 20.8197 9.61137 20.1286 7.79062 18.1038C5.98409 16.0948 4.19832 12.6929 4.01531 6.97382L2.01633 7.03779ZM12.5008 22.8996C13.2776 22.666 15.5576 21.8196 17.6964 19.4411C19.8494 17.0468 21.787 13.1798 21.9835 7.03779L19.9845 6.97382C19.8015 12.6929 18.0157 16.0948 16.2092 18.1038C14.3885 20.1286 12.4726 20.8197 11.9249 20.9844L12.5008 22.8996ZM9.29283 12.7072L11.2928 14.7072L12.707 13.293L10.707 11.293L9.29283 12.7072ZM12.7999 14.6001L15.7999 10.6001L14.1999 9.40012L11.1999 13.4001L12.7999 14.6001ZM11.8664 3.34719C11.8799 3.33754 11.9031 3.32801 11.9372 3.32961C11.9722 3.33125 12.0037 3.34423 12.0262 3.36295L13.3061 1.8261C12.5781 1.21985 11.5014 1.14952 10.7032 1.72028L11.8664 3.34719ZM11.499 22.8996C11.827 22.9983 12.1728 22.9983 12.5008 22.8996L11.9249 20.9844C11.9725 20.97 12.0273 20.97 12.0749 20.9844L11.499 22.8996ZM3.85179 4.935C2.90072 5.07326 1.97938 5.88301 2.01633 7.03779L4.01531 6.97382C4.01545 6.97825 4.0143 6.98353 4.0133 6.98603C4.01278 6.98732 4.01491 6.98134 4.02477 6.97079C4.04736 6.94662 4.08926 6.9215 4.13951 6.91419L3.85179 4.935ZM19.898 6.94248C19.9348 6.94631 19.965 6.96387 19.9808 6.98053C19.9876 6.98763 19.9882 6.9909 19.9871 6.988C19.9855 6.98401 19.9844 6.97812 19.9845 6.97382L21.9835 7.03779C22.0204 5.88523 21.0962 5.05618 20.1046 4.95319L19.898 6.94248Z" fill="#E14A5C"></path></g><defs><clipPath id="clip0_19_9"><rect width="24" height="24" fill="white"></rect></clipPath></defs></svg> 