<?xml version="1.0" encoding="UTF-8"?> <svg xmlns="http://www.w3.org/2000/svg" width="24" height="24" viewBox="0 0 24 24" fill="none"><path d="M4 22H20V20H4V22ZM22 20V5H20V20H22ZM2 5V20H4V5H2ZM4 5H20V3H4V5ZM4 5V3C2.89543 3 2 3.89543 2 5H4ZM22 5C22 3.89543 21.1046 3 20 3V5H22ZM20 22C21.1046 22 22 21.1046 22 20H20V22ZM4 20H2C2 21.1046 2.89543 22 4 22V20Z" fill="#E14A5C"></path><path d="M13 4H11C10.4477 4 10 4.44772 10 5V10C10 10.5523 10.4477 11 11 11H13C13.5523 11 14 10.5523 14 10V5C14 4.44772 13.5523 4 13 4Z" fill="#E14A5C"></path></svg> 