<?xml version="1.0" encoding="UTF-8"?> <svg xmlns="http://www.w3.org/2000/svg" width="24" height="24" viewBox="0 0 24 24" fill="none"><path d="M15 7H19L20 11L23 12.1667V17H15M15 7V5C15 4.44772 14.5523 4 14 4H2C1.44772 4 1 4.44772 1 5V16C1 16.5523 1.44772 17 2 17H15M15 7V17" stroke="#E14A5C" stroke-width="2" stroke-linejoin="round"></path><path d="M8 17.5C8 16.1193 6.88071 15 5.5 15C4.11929 15 3 16.1193 3 17.5C3 18.8807 4.11929 20 5.5 20C6.88071 20 8 18.8807 8 17.5Z" fill="#E14A5C"></path><path d="M21 17.5C21 16.1193 19.8807 15 18.5 15C17.1193 15 16 16.1193 16 17.5C16 18.8807 17.1193 20 18.5 20C19.8807 20 21 18.8807 21 17.5Z" fill="#E14A5C"></path></svg> 