<?xml version="1.0" encoding="UTF-8"?> <svg xmlns="http://www.w3.org/2000/svg" width="24" height="24" viewBox="0 0 24 24" fill="none"><path d="M17.8164 10.7827L18.3755 8.82584C18.7969 7.35102 18.8186 5.38562 17.377 4.08065C16.2151 3.02886 14.3354 2 11.5 2C8.66464 2 6.78489 3.02886 5.62299 4.08065C4.18137 5.38562 4.20313 7.35102 4.62451 8.82584L5.18362 10.7827C3.63759 10.5492 2 11.6837 2 13.5137C2 14.0067 2.13123 14.5288 2.45631 14.983C2.97255 15.7042 4.24048 17.289 6.2102 18.4857L4.23178 20.8598C3.87821 21.2841 3.93554 21.9147 4.35982 22.2682C4.78409 22.6218 5.41466 22.5645 5.76822 22.1402L8.06397 19.3853C9.08305 19.7617 10.2297 20 11.5 20C12.7703 20 13.917 19.7617 14.936 19.3853L17.2318 22.1402C17.5853 22.5645 18.2159 22.6218 18.6402 22.2682C19.0645 21.9147 19.1218 21.2841 18.7682 20.8598L16.7898 18.4857C18.7595 17.289 20.0275 15.7042 20.5437 14.983C20.8688 14.5288 21 14.0067 21 13.5137C21 11.6837 19.3624 10.5492 17.8164 10.7827ZM11.5 4C13.8018 4 15.2119 4.81849 16.0348 5.56338C16.6391 6.1104 16.7892 7.09775 16.4524 8.2764L15.1953 12.6763C14.1606 13.5268 12.8562 14 11.5 14C10.1438 14 8.83943 13.5268 7.80467 12.6763L6.54756 8.2764C6.2108 7.09776 6.36089 6.1104 6.96519 5.56338C7.78806 4.81849 9.19816 4 11.5 4ZM4 13.5137C4 12.8244 4.84711 12.4949 5.31285 13.003L5.73567 13.4643C7.2168 15.08 9.30809 16 11.5 16C13.6919 16 15.7832 15.08 17.2643 13.4643L17.6871 13.003C18.1529 12.4949 19 12.8244 19 13.5137C19 13.6571 18.9627 13.7556 18.9174 13.8189C18.1043 14.9548 15.5279 18 11.5 18C7.47206 18 4.89568 14.9548 4.08264 13.8189C4.0373 13.7556 4 13.6571 4 13.5137Z" fill="white"></path></svg> 