<?xml version="1.0" encoding="UTF-8"?> <svg xmlns="http://www.w3.org/2000/svg" width="32" height="32" viewBox="0 0 32 32" fill="none"><path d="M9.5 2.5C10.5417 2.5 11.4896 2.69792 12.3438 3.09375C13.1979 3.48958 13.9375 3.94792 14.5625 4.46875C14.9583 4.80208 15.3125 5.14583 15.625 5.5C15.9583 5.85417 16.25 6.1875 16.5 6.5C16.75 6.1875 17.0312 5.85417 17.3438 5.5C17.6771 5.14583 18.0417 4.80208 18.4375 4.46875C19.0625 3.94792 19.8021 3.48958 20.6562 3.09375C21.5104 2.69792 22.4583 2.5 23.5 2.5C24.7708 2.5 25.9271 2.73958 26.9688 3.21875C28.0312 3.71875 28.9271 4.38542 29.6562 5.21875C30.4062 6.03125 30.9792 6.97917 31.375 8.0625C31.7917 9.14583 32 10.2917 32 11.5C32 12.5625 31.7917 13.6354 31.375 14.7188C30.9583 15.7812 30.4479 16.8021 29.8438 17.7812C29.1979 18.7812 28.4688 19.7604 27.6562 20.7188C26.8646 21.6771 26.0521 22.5729 25.2188 23.4062C24.3646 24.2396 23.5104 25.0208 22.6562 25.75C21.8229 26.4583 21.0417 27.0729 20.3125 27.5938C19.875 27.9271 19.4167 28.25 18.9375 28.5625C18.4792 28.8542 18 29.0938 17.5 29.2812C17.375 29.3229 17.2188 29.375 17.0312 29.4375C16.8646 29.4792 16.6875 29.5 16.5 29.5C16.3125 29.5 16.125 29.4792 15.9375 29.4375C15.7708 29.375 15.625 29.3229 15.5 29.2812C15 29.0938 14.5104 28.8542 14.0312 28.5625C13.5729 28.25 13.125 27.9271 12.6875 27.5938C11.9583 27.0729 11.1667 26.4583 10.3125 25.75C9.47917 25.0208 8.63542 24.2396 7.78125 23.4062C6.94792 22.5729 6.125 21.6771 5.3125 20.7188C4.52083 19.7604 3.80208 18.7812 3.15625 17.7812C2.55208 16.8021 2.04167 15.7812 1.625 14.7188C1.20833 13.6354 1 12.5625 1 11.5C1 10.2917 1.20833 9.14583 1.625 8.0625C2.02083 6.97917 2.58333 6.03125 3.3125 5.21875C4.0625 4.38542 4.96875 3.71875 6.03125 3.21875C7.07292 2.73958 8.22917 2.5 9.5 2.5ZM4 11.5C4 12.1667 4.14583 12.8958 4.4375 13.6875C4.72917 14.4792 5.15625 15.3125 5.71875 16.1875C6.26042 17.0625 6.89583 17.9375 7.625 18.8125C8.35417 19.6667 9.11458 20.4896 9.90625 21.2812C10.6979 22.0729 11.4896 22.8021 12.2812 23.4688C13.0729 24.1354 13.7917 24.7083 14.4375 25.1875C14.7708 25.4167 15.1042 25.6458 15.4375 25.875C15.7708 26.1042 16.125 26.2917 16.5 26.4375C16.875 26.2917 17.2292 26.1042 17.5625 25.875C17.8958 25.6458 18.2292 25.4167 18.5625 25.1875C19.2083 24.7083 19.9271 24.1354 20.7188 23.4688C21.5104 22.8021 22.3021 22.0729 23.0938 21.2812C23.8854 20.4896 24.6458 19.6667 25.375 18.8125C26.1042 17.9375 26.7396 17.0625 27.2812 16.1875C27.8438 15.3125 28.2708 14.4792 28.5625 13.6875C28.8542 12.8958 29 12.1667 29 11.5C29 9.77083 28.4792 8.34375 27.4375 7.21875C26.3958 6.07292 25.0833 5.5 23.5 5.5C22.9167 5.5 22.3646 5.625 21.8438 5.875C21.3229 6.10417 20.8229 6.40625 20.3438 6.78125C19.8854 7.17708 19.4792 7.59375 19.125 8.03125C18.7708 8.46875 18.4792 8.85417 18.25 9.1875C18.0417 9.54167 17.7708 9.79167 17.4375 9.9375C17.125 10.0833 16.8125 10.1562 16.5 10.1562C16.1875 10.1562 15.8646 10.0833 15.5312 9.9375C15.2188 9.79167 14.9479 9.54167 14.7188 9.1875C14.5104 8.85417 14.2292 8.46875 13.875 8.03125C13.5208 7.59375 13.1146 7.17708 12.6562 6.78125C12.1771 6.40625 11.6771 6.10417 11.1562 5.875C10.6354 5.625 10.0833 5.5 9.5 5.5C7.91667 5.5 6.60417 6.07292 5.5625 7.21875C4.52083 8.34375 4 9.77083 4 11.5Z" fill="#7354EF"></path></svg> 