<?xml version="1.0" encoding="UTF-8"?> <svg xmlns="http://www.w3.org/2000/svg" width="32" height="32" viewBox="0 0 32 32" fill="none"><path d="M6.41651 1.33334H7.44013C10.8424 1.33334 13.0594 4.39776 13.4718 7.25613L13.484 7.33908C13.753 9.12448 13.384 11.1684 11.9361 12.6162L11.2629 13.2895C12.9126 16.4766 15.5234 19.0874 18.7106 20.7372L19.3838 20.0639C20.8317 18.6161 22.8756 18.2471 24.661 18.516L24.7439 18.5283C27.6023 18.9406 30.6667 21.1576 30.6667 24.5599V25.5835C30.6667 28.2527 28.6074 30.7642 25.666 30.6164C12.74 29.9673 2.03971 19.188 1.38517 6.3348C1.23533 3.39257 3.74768 1.33334 6.41651 1.33334ZM4.04838 6.19918C4.63368 17.6926 14.2476 27.3729 25.7998 27.9531C26.9492 28.0109 28.0001 27.0103 28.0001 25.5835V24.5599C28.0001 22.9651 26.4507 21.4688 24.3632 21.1676L24.2637 21.153C23.0617 20.9719 21.9579 21.2611 21.2695 21.9496L19.9259 23.2931C19.5335 23.6855 18.9392 23.7938 18.4337 23.5652C14.0051 21.5624 10.4376 17.995 8.43487 13.5664C8.20623 13.0608 8.31459 12.4665 8.70693 12.0742L10.0505 10.7306C10.739 10.0422 11.0282 8.93839 10.8471 7.73631L10.8324 7.63689C10.5313 5.54936 9.03498 4 7.44013 4H6.41651C4.98942 4 3.9899 5.05079 4.04838 6.19918Z" fill="#7354EF"></path></svg> 