<?xml version="1.0" encoding="UTF-8"?> <svg xmlns="http://www.w3.org/2000/svg" width="32" height="32" viewBox="0 0 32 32" fill="none"><path d="M15.2813 0.4375C15.5105 0.3125 15.75 0.25 16 0.25C16.25 0.25 16.4896 0.3125 16.7188 0.4375L27.9688 6.4375C28.0938 6.5 28.2084 6.59375 28.3125 6.71875C28.4375 6.82292 28.5313 6.94792 28.5938 7.09375L31.5938 13.0938C31.7813 13.4479 31.8125 13.8229 31.6875 14.2188C31.5625 14.5938 31.323 14.875 30.9688 15.0625L29 16.1562V22.0938C29 22.8021 28.823 23.4583 28.4688 24.0625C28.1355 24.6667 27.6771 25.1458 27.0938 25.5L18.0938 31C17.448 31.375 16.75 31.5625 16 31.5625C15.25 31.5625 14.5521 31.375 13.9063 31L4.9063 25.5C4.32297 25.1458 3.85422 24.6667 3.50005 24.0625C3.16672 23.4583 3.00005 22.8021 3.00005 22.0938V16.1562L1.0313 15.0625C0.677132 14.875 0.437549 14.5938 0.312549 14.2188C0.187549 13.8229 0.218799 13.4479 0.406299 13.0938L3.4063 7.09375C3.4688 6.94792 3.55213 6.82292 3.6563 6.71875C3.7813 6.59375 3.9063 6.5 4.0313 6.4375L15.2813 0.4375ZM19.7188 21.3125C19.5521 21.4167 19.3646 21.4792 19.1563 21.5C18.9688 21.5208 18.7709 21.5 18.5625 21.4375C18.375 21.375 18.198 21.2812 18.0313 21.1562C17.8855 21.0312 17.7605 20.875 17.6563 20.6875L17.5 20.375V27.8438L25.5313 22.9375C25.6771 22.8542 25.7917 22.7396 25.875 22.5938C25.9584 22.4271 26 22.2604 26 22.0938V17.8125L19.7188 21.3125ZM14.5 20.375L14.3438 20.6875C14.2396 20.875 14.1042 21.0312 13.9375 21.1562C13.7917 21.2812 13.625 21.375 13.4375 21.4375C13.2292 21.5 13.0209 21.5208 12.8125 21.5C12.625 21.4792 12.448 21.4167 12.2813 21.3125L6.00005 17.8125V22.0938C6.00005 22.2604 6.04172 22.4271 6.12505 22.5938C6.20838 22.7396 6.32297 22.8542 6.4688 22.9375L14.5 27.8438V20.375ZM18 14.8438L19.625 17.9375L28.2813 13.125L26.625 9.84375L18 14.8438ZM24.1563 7.8125L16 3.4375L7.8438 7.8125L16 12.5312L24.1563 7.8125ZM5.37505 9.84375L3.7188 13.125L12.375 17.9375L14 14.8438L5.37505 9.84375Z" fill="#7354EF"></path></svg> 