<?xml version="1.0" encoding="UTF-8"?> <svg xmlns="http://www.w3.org/2000/svg" width="32" height="32" viewBox="0 0 32 32" fill="none"><path d="M16.6 7C17.7041 7 18.6416 7.39583 19.4125 8.1875C20.2041 8.95833 20.6 9.89583 20.6 11C20.6 12.1042 20.2041 13.0521 19.4125 13.8438C18.6416 14.6146 17.7041 15 16.6 15C15.4958 15 14.5479 14.6146 13.7562 13.8438C12.9854 13.0521 12.6 12.1042 12.6 11C12.6 9.89583 12.9854 8.95833 13.7562 8.1875C14.5479 7.39583 15.4958 7 16.6 7ZM15.6 11C15.6 11.2708 15.6937 11.5104 15.8812 11.7188C16.0896 11.9062 16.3291 12 16.6 12C16.8708 12 17.1 11.9062 17.2875 11.7188C17.4958 11.5104 17.6 11.2708 17.6 11C17.6 10.7292 17.4958 10.5 17.2875 10.3125C17.1 10.1042 16.8708 10 16.6 10C16.3291 10 16.0896 10.1042 15.8812 10.3125C15.6937 10.5 15.6 10.7292 15.6 11ZM7.09998 11C7.09998 9.66667 7.34998 8.42708 7.84998 7.28125C8.32914 6.11458 8.99581 5.10417 9.84998 4.25C10.7041 3.39583 11.7146 2.72917 12.8812 2.25C14.0271 1.75 15.2666 1.5 16.6 1.5C17.9333 1.5 19.1729 1.75 20.3187 2.25C21.4854 2.72917 22.4958 3.39583 23.35 4.25C24.2041 5.10417 24.8708 6.11458 25.35 7.28125C25.85 8.42708 26.1 9.66667 26.1 11C26.1 12.25 25.8396 13.6354 25.3187 15.1562C24.8187 16.6562 24.1729 18.0625 23.3812 19.375C22.9854 20.0417 22.5375 20.6771 22.0375 21.2812C21.5583 21.8854 21.0479 22.4167 20.5062 22.875C19.9646 23.3333 19.3604 23.7188 18.6937 24.0312C18.0479 24.3438 17.35 24.5 16.6 24.5C15.85 24.5 15.1416 24.3438 14.475 24.0312C13.8291 23.7188 13.2354 23.3333 12.6937 22.875C12.1521 22.4167 11.6312 21.8854 11.1312 21.2812C10.6521 20.6771 10.2146 20.0417 9.81873 19.375C9.02706 18.0625 8.37081 16.6562 7.84998 15.1562C7.34998 13.6354 7.09998 12.25 7.09998 11ZM16.6 4.5C15.6833 4.5 14.8291 4.66667 14.0375 5C13.2458 5.33333 12.5583 5.79167 11.975 6.375C11.3916 6.95833 10.9333 7.64583 10.6 8.4375C10.2666 9.22917 10.1 10.0833 10.1 11C10.1 11.875 10.2979 12.9375 10.6937 14.1875C11.1104 15.4375 11.6729 16.6458 12.3812 17.8125C12.7354 18.3958 13.1 18.9271 13.475 19.4062C13.85 19.8646 14.2354 20.25 14.6312 20.5625C15.0271 20.9167 15.3916 21.1667 15.725 21.3125C16.0583 21.4375 16.35 21.5 16.6 21.5C16.85 21.5 17.1416 21.4375 17.475 21.3125C17.8083 21.1667 18.1729 20.9167 18.5687 20.5625C18.9646 20.25 19.35 19.8646 19.725 19.4062C20.1 18.9271 20.4646 18.3958 20.8187 17.8125C21.5271 16.6458 22.0791 15.4375 22.475 14.1875C22.8916 12.9375 23.1 11.875 23.1 11C23.1 10.0833 22.9333 9.22917 22.6 8.4375C22.2666 7.64583 21.8083 6.95833 21.225 6.375C20.6416 5.79167 19.9541 5.33333 19.1625 5C18.3708 4.66667 17.5166 4.5 16.6 4.5ZM7.47498 20.5625C7.64164 20.9375 7.64164 21.3229 7.47498 21.7188C7.32914 22.0938 7.06873 22.3646 6.69373 22.5312C6.31873 22.6771 5.99581 22.8229 5.72498 22.9688C5.45414 23.1146 5.23539 23.2604 5.06873 23.4062C5.04789 23.4271 5.01664 23.4583 4.97498 23.5C4.95414 23.5208 4.93331 23.5417 4.91248 23.5625C4.95414 23.6042 5.00623 23.6562 5.06873 23.7188C5.13123 23.7812 5.21456 23.8542 5.31873 23.9375C5.56873 24.1458 5.90206 24.3542 6.31873 24.5625C6.73539 24.7708 7.22498 24.9688 7.78748 25.1562C8.89164 25.5521 10.2041 25.875 11.725 26.125C13.2458 26.375 14.8708 26.5 16.6 26.5C18.3291 26.5 19.9541 26.375 21.475 26.125C22.9958 25.875 24.3083 25.5521 25.4125 25.1562C25.975 24.9688 26.4646 24.7708 26.8812 24.5625C27.2979 24.3542 27.6312 24.1458 27.8812 23.9375C27.9854 23.8542 28.0687 23.7812 28.1312 23.7188C28.1937 23.6562 28.2458 23.6042 28.2875 23.5625C28.2666 23.5417 28.2354 23.5208 28.1937 23.5C28.1729 23.4583 28.1521 23.4271 28.1312 23.4062C27.9646 23.2604 27.7458 23.1146 27.475 22.9688C27.2041 22.8229 26.8812 22.6771 26.5062 22.5312C26.1312 22.3646 25.8604 22.0938 25.6937 21.7188C25.5479 21.3229 25.5583 20.9375 25.725 20.5625C25.8708 20.1875 26.1312 19.9271 26.5062 19.7812C26.9021 19.6146 27.2979 19.6042 27.6937 19.75C28.1104 19.9375 28.5166 20.1458 28.9125 20.375C29.3083 20.5833 29.6729 20.8125 30.0062 21.0625C30.2979 21.3125 30.5896 21.6458 30.8812 22.0625C31.1937 22.4583 31.35 22.9375 31.35 23.5C31.35 24.125 31.1729 24.6771 30.8187 25.1562C30.4854 25.6146 30.1104 26 29.6937 26.3125C29.2771 26.6458 28.7875 26.9583 28.225 27.25C27.6625 27.5208 27.0583 27.7708 26.4125 28C25.7666 28.2292 25.0687 28.4375 24.3187 28.625C23.5687 28.8125 22.7771 28.9688 21.9437 29.0938C21.1104 29.2188 20.2458 29.3229 19.35 29.4062C18.4541 29.4688 17.5375 29.5 16.6 29.5C15.6625 29.5 14.7458 29.4688 13.85 29.4062C12.9541 29.3229 12.0896 29.2188 11.2562 29.0938C10.4229 28.9688 9.63123 28.8125 8.88123 28.625C8.13123 28.4375 7.43331 28.2292 6.78748 28C6.14164 27.7708 5.53748 27.5208 4.97498 27.25C4.41248 26.9583 3.92289 26.6458 3.50623 26.3125C3.08956 26 2.70414 25.6146 2.34998 25.1562C2.01664 24.6771 1.84998 24.125 1.84998 23.5C1.84998 22.9375 1.99581 22.4583 2.28748 22.0625C2.59998 21.6458 2.90206 21.3125 3.19373 21.0625C3.52706 20.8125 3.89164 20.5833 4.28748 20.375C4.68331 20.1458 5.08956 19.9375 5.50623 19.75C5.90206 19.6042 6.28748 19.6146 6.66248 19.7812C7.05831 19.9271 7.32914 20.1875 7.47498 20.5625Z" fill="#7354EF"></path></svg> 