<?xml version="1.0" encoding="UTF-8"?> <svg xmlns="http://www.w3.org/2000/svg" width="16" height="16" viewBox="0 0 16 16" fill="none"><g clip-path="url(#clip0_19532_24806)"><path d="M12.7524 5.12246C13.9915 6.32727 14.6739 7.93978 14.6739 9.66291C14.6739 13.1572 11.8312 16 8.33712 16C5.4468 16 2.92541 14.0432 2.20556 11.2414C2.06916 10.7098 2 10.1788 2 9.66291C2 8.65025 2.23656 7.67678 2.70313 6.76962C3.16229 5.87777 3.83744 5.09683 4.6557 4.51099C4.66046 4.50758 4.66529 4.50426 4.67017 4.50102C4.70135 4.48045 4.73473 4.45595 4.77014 4.43005C4.78723 4.41755 4.80432 4.40499 4.82154 4.39258C6.12258 3.46158 6.93971 2.01832 7.06465 0.431938C7.07073 0.354864 7.09578 0.28049 7.13756 0.21544C7.17935 0.15039 7.23657 0.0966839 7.30414 0.0591049C7.3717 0.0215258 7.44752 0.00124032 7.52482 5.51008e-05C7.60213 -0.00113012 7.67852 0.0168217 7.74721 0.0523118C9.34987 0.880659 10.5264 2.35695 10.9751 4.10261C11.1116 4.63408 11.1808 5.16511 11.1808 5.68115C11.1807 5.94993 11.1632 6.21842 11.1284 6.48493C11.479 6.1149 11.7754 5.6971 12.0088 5.24396C12.0424 5.17883 12.0907 5.12247 12.1499 5.07939C12.2092 5.03632 12.2777 5.00773 12.35 4.99591C12.4223 4.9841 12.4964 4.9894 12.5663 5.01137C12.6361 5.03335 12.6999 5.07139 12.7524 5.12246Z" fill="#7354EF"></path></g><defs><clipPath id="clip0_19532_24806"><rect width="16" height="16" fill="white"></rect></clipPath></defs></svg> 