<svg width="24" height="25" viewBox="0 0 24 25" fill="none" xmlns="http://www.w3.org/2000/svg">
<path d="M17.25 17.5059H6.54375L3.92813 3.12461C3.89752 2.95239 3.80768 2.79627 3.67415 2.68329C3.54062 2.5703 3.37179 2.50753 3.19687 2.50586H1.5" stroke="#191C1F" stroke-width="1.5" stroke-linecap="round" stroke-linejoin="round"/>
<path d="M7.5 21.2559C8.53553 21.2559 9.375 20.4164 9.375 19.3809C9.375 18.3453 8.53553 17.5059 7.5 17.5059C6.46447 17.5059 5.625 18.3453 5.625 19.3809C5.625 20.4164 6.46447 21.2559 7.5 21.2559Z" stroke="#191C1F" stroke-width="1.5" stroke-linecap="round" stroke-linejoin="round"/>
<path d="M17.25 21.2559C18.2855 21.2559 19.125 20.4164 19.125 19.3809C19.125 18.3453 18.2855 17.5059 17.25 17.5059C16.2145 17.5059 15.375 18.3453 15.375 19.3809C15.375 20.4164 16.2145 21.2559 17.25 21.2559Z" stroke="#191C1F" stroke-width="1.5" stroke-linecap="round" stroke-linejoin="round"/>
<path d="M5.85938 13.7559H17.6344C17.985 13.7569 18.3247 13.6344 18.5939 13.4098C18.8631 13.1852 19.0445 12.8728 19.1063 12.5277L20.25 6.25586H4.5" stroke="#191C1F" stroke-width="1.5" stroke-linecap="round" stroke-linejoin="round"/>
</svg>
