<?xml version="1.0" encoding="UTF-8"?> <svg xmlns="http://www.w3.org/2000/svg" width="100" height="100" viewBox="0 0 100 100" fill="none"><path d="M0 50C0 22.3858 22.3858 0 50 0C77.6142 0 100 22.3858 100 50C100 77.6142 77.6142 100 50 100C22.3858 100 0 77.6142 0 50Z" fill="#2A2F56"></path><path d="M31.5468 72.539H36.0268V73.995H31.5468V72.539Z" fill="#71A7C6"></path><path d="M41.6258 77.467V74.961H37.4328V73.498L41.2758 67.667H43.0818V73.505H43.9778V74.961H43.0818V77.467H41.6258ZM39.1268 73.498L41.6258 73.505L41.6118 69.676L39.1268 73.498Z" fill="#71A7C6"></path><path d="M48.5821 77.649C47.9895 77.649 47.4505 77.5137 46.9651 77.243C46.4798 76.9723 46.0925 76.6107 45.8031 76.158C45.5185 75.7007 45.3761 75.192 45.3761 74.632C45.3761 74.1607 45.4928 73.722 45.7261 73.316C45.9595 72.91 46.2698 72.574 46.6571 72.308C46.3445 72.0747 46.0901 71.7807 45.8941 71.426C45.6981 71.0713 45.6001 70.6887 45.6001 70.278C45.6001 69.7647 45.7331 69.298 45.9991 68.878C46.2698 68.4533 46.6315 68.115 47.0841 67.863C47.5368 67.611 48.0361 67.485 48.5821 67.485C49.1281 67.485 49.6275 67.611 50.0801 67.863C50.5328 68.115 50.8921 68.4533 51.1581 68.878C51.4288 69.298 51.5641 69.7647 51.5641 70.278C51.5641 70.6887 51.4661 71.0713 51.2701 71.426C51.0788 71.7807 50.8245 72.0747 50.5071 72.308C50.9038 72.574 51.2165 72.91 51.4451 73.316C51.6785 73.722 51.7951 74.1607 51.7951 74.632C51.7951 75.1873 51.6505 75.6937 51.3611 76.151C51.0718 76.6083 50.6845 76.9723 50.1991 77.243C49.7138 77.5137 49.1748 77.649 48.5821 77.649ZM48.5821 76.193C48.8901 76.193 49.1701 76.123 49.4221 75.983C49.6741 75.843 49.8748 75.6563 50.0241 75.423C50.1781 75.185 50.2551 74.9213 50.2551 74.632C50.2551 74.3473 50.1781 74.0883 50.0241 73.855C49.8748 73.617 49.6741 73.428 49.4221 73.288C49.1701 73.148 48.8901 73.078 48.5821 73.078C48.2788 73.078 47.9988 73.148 47.7421 73.288C47.4901 73.428 47.2871 73.617 47.1331 73.855C46.9838 74.0883 46.9091 74.3473 46.9091 74.632C46.9091 74.9213 46.9838 75.185 47.1331 75.423C47.2871 75.6563 47.4901 75.843 47.7421 75.983C47.9988 76.123 48.2788 76.193 48.5821 76.193ZM48.5821 71.622C48.8481 71.622 49.0885 71.5613 49.3031 71.44C49.5225 71.3187 49.6975 71.1577 49.8281 70.957C49.9588 70.7517 50.0241 70.5253 50.0241 70.278C50.0241 70.0307 49.9588 69.8067 49.8281 69.606C49.6975 69.4053 49.5225 69.2443 49.3031 69.123C49.0885 69.0017 48.8481 68.941 48.5821 68.941C48.3161 68.941 48.0735 69.0017 47.8541 69.123C47.6395 69.2443 47.4668 69.4053 47.3361 69.606C47.2055 69.8067 47.1401 70.0307 47.1401 70.278C47.1401 70.5253 47.2055 70.7517 47.3361 70.957C47.4668 71.1577 47.6395 71.3187 47.8541 71.44C48.0735 71.5613 48.3161 71.622 48.5821 71.622Z" fill="#71A7C6"></path><path d="M58.6423 66.967H60.0983V77.467H58.6423V76.438C58.4137 76.802 58.115 77.096 57.7463 77.32C57.3777 77.5393 56.946 77.649 56.4513 77.649C55.9427 77.649 55.4667 77.5533 55.0233 77.362C54.58 77.1707 54.188 76.907 53.8473 76.571C53.5113 76.2303 53.2477 75.8383 53.0563 75.395C52.865 74.9517 52.7693 74.4757 52.7693 73.967C52.7693 73.4583 52.865 72.9823 53.0563 72.539C53.2477 72.091 53.5113 71.699 53.8473 71.363C54.188 71.0223 54.58 70.7563 55.0233 70.565C55.4667 70.3737 55.9427 70.278 56.4513 70.278C56.946 70.278 57.3777 70.39 57.7463 70.614C58.115 70.8333 58.4137 71.1227 58.6423 71.482V66.967ZM56.4653 76.242C56.876 76.242 57.2353 76.1417 57.5433 75.941C57.8513 75.7357 58.0893 75.4603 58.2573 75.115C58.43 74.7697 58.5163 74.387 58.5163 73.967C58.5163 73.5423 58.43 73.1573 58.2573 72.812C58.0847 72.4667 57.8443 72.1937 57.5363 71.993C57.233 71.7877 56.876 71.685 56.4653 71.685C56.0593 71.685 55.6883 71.7877 55.3523 71.993C55.021 72.1983 54.755 72.4737 54.5543 72.819C54.3583 73.1643 54.2603 73.547 54.2603 73.967C54.2603 74.3917 54.3607 74.7767 54.5613 75.122C54.7667 75.4627 55.035 75.7357 55.3663 75.941C55.7023 76.1417 56.0687 76.242 56.4653 76.242Z" fill="#71A7C6"></path><path d="M61.7753 77.467V67.667H65.2543C65.7583 67.667 66.2133 67.7697 66.6193 67.975C67.0299 68.1803 67.3543 68.4767 67.5923 68.864C67.8349 69.2467 67.9563 69.7063 67.9563 70.243C67.9563 70.5043 67.9143 70.761 67.8303 71.013C67.7463 71.265 67.6273 71.4867 67.4733 71.678C67.3193 71.8693 67.1326 72.0047 66.9133 72.084C67.2119 72.1587 67.4593 72.294 67.6553 72.49C67.8559 72.6813 68.0146 72.9053 68.1313 73.162C68.2479 73.4187 68.3296 73.6847 68.3763 73.96C68.4276 74.2353 68.4533 74.4967 68.4533 74.744C68.4533 75.2667 68.3273 75.7333 68.0753 76.144C67.8233 76.5547 67.4849 76.879 67.0603 77.117C66.6403 77.3503 66.1759 77.467 65.6673 77.467H61.7753ZM63.2313 76.207H65.5273C65.8259 76.207 66.0966 76.1323 66.3393 75.983C66.5866 75.8337 66.7826 75.6283 66.9273 75.367C67.0719 75.101 67.1443 74.8023 67.1443 74.471C67.1443 74.1817 67.0719 73.9087 66.9273 73.652C66.7826 73.3907 66.5866 73.1807 66.3393 73.022C66.0966 72.8633 65.8259 72.784 65.5273 72.784H63.2313V76.207ZM63.2313 71.545H65.1003C65.4829 71.545 65.8119 71.4283 66.0873 71.195C66.3626 70.9617 66.5003 70.642 66.5003 70.236C66.5003 69.802 66.3626 69.4777 66.0873 69.263C65.8119 69.0437 65.4829 68.934 65.1003 68.934H63.2313V71.545Z" fill="#71A7C6"></path><path d="M38.2684 51.559H40.2124L44.2844 62.759H42.5244L41.7484 60.631H36.7324L35.9644 62.759H34.1964L38.2684 51.559ZM37.3484 58.967H41.1324L39.2364 53.767L37.3484 58.967Z" fill="#83C5E2"></path><path d="M45.6883 62.759V51.559H47.4883L52.6323 59.751V51.559H54.2963V62.759H52.4963L47.3523 54.567V62.759H45.6883Z" fill="#83C5E2"></path><path d="M61.4035 62.967C60.6462 62.967 59.9342 62.8177 59.2675 62.519C58.6009 62.215 58.0142 61.799 57.5075 61.271C57.0062 60.7377 56.6115 60.119 56.3235 59.415C56.0409 58.711 55.8995 57.959 55.8995 57.159C55.8995 56.359 56.0409 55.607 56.3235 54.903C56.6115 54.199 57.0062 53.583 57.5075 53.055C58.0142 52.5217 58.6009 52.1057 59.2675 51.807C59.9342 51.503 60.6462 51.351 61.4035 51.351C62.3102 51.351 63.1449 51.5617 63.9075 51.983C64.6702 52.4043 65.3022 52.9643 65.8035 53.663L64.3235 54.455C63.9769 54.0177 63.5475 53.6683 63.0355 53.407C62.5235 53.1457 61.9795 53.015 61.4035 53.015C60.8702 53.015 60.3715 53.1243 59.9075 53.343C59.4435 53.5617 59.0355 53.8603 58.6835 54.239C58.3315 54.6177 58.0569 55.0577 57.8595 55.559C57.6622 56.0603 57.5635 56.5937 57.5635 57.159C57.5635 57.7297 57.6622 58.2657 57.8595 58.767C58.0569 59.263 58.3315 59.703 58.6835 60.087C59.0409 60.4657 59.4515 60.7643 59.9155 60.983C60.3795 61.1963 60.8755 61.303 61.4035 61.303C61.9902 61.303 62.5369 61.1723 63.0435 60.911C63.5555 60.6443 63.9822 60.2923 64.3235 59.855L65.8035 60.663C65.3022 61.3617 64.6702 61.9217 63.9075 62.343C63.1449 62.759 62.3102 62.967 61.4035 62.967Z" fill="#83C5E2"></path><path d="M52 22.351C51.4477 22.351 51 22.7987 51 23.351V45.351C51 45.9033 51.4477 46.351 52 46.351C52.5523 46.351 53 45.9033 53 45.351V23.351C53 22.7987 52.5523 22.351 52 22.351Z" fill="#83C5E2"></path><path d="M40 31.351C39.4477 31.351 39 31.7987 39 32.351V36.351C39 36.9033 39.4477 37.351 40 37.351C40.5523 37.351 41 36.9033 41 36.351V32.351C41 31.7987 40.5523 31.351 40 31.351Z" fill="#83C5E2"></path><path d="M43 28.351V40.351C43 40.9033 43.4477 41.351 44 41.351C44.5523 41.351 45 40.9033 45 40.351V28.351C45 27.7987 44.5523 27.351 44 27.351C43.4477 27.351 43 27.7987 43 28.351Z" fill="#83C5E2"></path><path d="M48 29.351C47.4477 29.351 47 29.7987 47 30.351V38.351C47 38.9033 47.4477 39.351 48 39.351C48.5523 39.351 49 38.9033 49 38.351V30.351C49 29.7987 48.5523 29.351 48 29.351Z" fill="#83C5E2"></path><path d="M59.9498 31.0581L58.5355 32.4723L57.1213 31.0581C56.7308 30.6676 56.0976 30.6676 55.7071 31.0581C55.3166 31.4486 55.3166 32.0818 55.7071 32.4723L57.1213 33.8865L55.7071 35.3007C55.3166 35.6913 55.3166 36.3244 55.7071 36.715C56.0976 37.1055 56.7308 37.1055 57.1213 36.715L58.5355 35.3008L59.9497 36.715C60.3402 37.1055 60.9734 37.1055 61.3639 36.715C61.7545 36.3244 61.7545 35.6913 61.3639 35.3008L59.9497 33.8865L61.364 32.4723C61.7545 32.0818 61.7545 31.4486 61.364 31.0581C60.9734 30.6676 60.3403 30.6676 59.9498 31.0581Z" fill="#83C5E2"></path></svg> 