<?xml version="1.0" encoding="UTF-8"?> <svg xmlns="http://www.w3.org/2000/svg" width="100" height="100" viewBox="0 0 100 100" fill="none"><path d="M0 50C0 22.3858 22.3858 0 50 0C77.6142 0 100 22.3858 100 50C100 77.6142 77.6142 100 50 100C22.3858 100 0 77.6142 0 50Z" fill="#2A2F56"></path><path d="M26.284 79.309V70.965H25.115L25.514 69.509H27.74V79.309H26.284Z" fill="#71A7C6"></path><path d="M32.6626 79.491C32.042 79.491 31.4796 79.3417 30.9756 79.043C30.4763 78.7397 30.0796 78.3383 29.7856 77.839C29.4963 77.335 29.3516 76.7843 29.3516 76.187H30.8076C30.8076 76.5277 30.8916 76.838 31.0596 77.118C31.2276 77.398 31.4516 77.622 31.7316 77.79C32.0116 77.9533 32.322 78.035 32.6626 78.035C32.9986 78.035 33.3066 77.9533 33.5866 77.79C33.8666 77.622 34.0906 77.398 34.2586 77.118C34.4266 76.838 34.5106 76.5277 34.5106 76.187C34.5106 75.8463 34.4336 75.536 34.2796 75.256C34.1256 74.9713 33.8946 74.745 33.5866 74.577C33.2786 74.4043 32.8866 74.318 32.4106 74.318H29.9396L30.9336 69.509H35.6726V70.965H32.1166L31.7316 72.862L32.5786 72.876C33.246 72.89 33.8316 73.044 34.3356 73.338C34.8443 73.6273 35.2433 74.0193 35.5326 74.514C35.822 75.004 35.9666 75.5617 35.9666 76.187C35.9666 76.6397 35.8803 77.0667 35.7076 77.468C35.535 77.8647 35.297 78.2147 34.9936 78.518C34.695 78.8213 34.345 79.0593 33.9436 79.232C33.547 79.4047 33.12 79.491 32.6626 79.491Z" fill="#71A7C6"></path><path d="M46.8953 69.509H48.3513V79.309H46.8953V74.787H42.4643V79.309H41.0083V69.509H42.4643V73.331H46.8953V69.509Z" fill="#71A7C6"></path><path d="M53.016 79.491C52.372 79.491 51.784 79.3253 51.252 78.994C50.7247 78.6627 50.3023 78.2193 49.985 77.664C49.6723 77.104 49.516 76.4857 49.516 75.809C49.516 75.2957 49.607 74.8173 49.789 74.374C49.971 73.926 50.2207 73.534 50.538 73.198C50.86 72.8573 51.2333 72.5913 51.658 72.4C52.0827 72.2087 52.5353 72.113 53.016 72.113C53.66 72.113 54.2457 72.2787 54.773 72.61C55.305 72.9413 55.7273 73.387 56.04 73.947C56.3573 74.507 56.516 75.1277 56.516 75.809C56.516 76.3177 56.425 76.7937 56.243 77.237C56.061 77.6803 55.809 78.0723 55.487 78.413C55.1697 78.749 54.7987 79.0127 54.374 79.204C53.954 79.3953 53.5013 79.491 53.016 79.491ZM53.016 78.035C53.4033 78.035 53.751 77.9323 54.059 77.727C54.367 77.5217 54.6097 77.251 54.787 76.915C54.969 76.5743 55.06 76.2057 55.06 75.809C55.06 75.403 54.9667 75.0297 54.78 74.689C54.598 74.3483 54.353 74.0777 54.045 73.877C53.737 73.6717 53.394 73.569 53.016 73.569C52.6333 73.569 52.2857 73.6717 51.973 73.877C51.665 74.0823 51.42 74.3553 51.238 74.696C51.0607 75.0367 50.972 75.4077 50.972 75.809C50.972 76.2243 51.0653 76.6 51.252 76.936C51.4387 77.272 51.686 77.5403 51.994 77.741C52.3067 77.937 52.6473 78.035 53.016 78.035Z" fill="#71A7C6"></path><path d="M57.2302 76.684V72.309H58.6862V76.327C58.6862 76.6397 58.7632 76.9243 58.9172 77.181C59.0712 77.4377 59.2766 77.643 59.5332 77.797C59.7899 77.9463 60.0722 78.021 60.3802 78.021C60.6929 78.021 60.9752 77.9463 61.2272 77.797C61.4839 77.643 61.6869 77.4377 61.8362 77.181C61.9902 76.9243 62.0672 76.6397 62.0672 76.327V72.309H63.5232L63.5302 79.309H62.0742L62.0672 78.553C61.8292 78.8423 61.5329 79.071 61.1782 79.239C60.8236 79.407 60.4432 79.491 60.0372 79.491C59.5192 79.491 59.0479 79.365 58.6232 79.113C58.1986 78.861 57.8602 78.5227 57.6082 78.098C57.3562 77.6733 57.2302 77.202 57.2302 76.684Z" fill="#71A7C6"></path><path d="M64.9341 79.309V72.309H66.3901V73.051C66.6327 72.7617 66.9314 72.533 67.2861 72.365C67.6407 72.197 68.0234 72.113 68.4341 72.113C68.6954 72.113 68.9544 72.148 69.2111 72.218L68.6301 73.688C68.4481 73.618 68.2661 73.583 68.0841 73.583C67.7761 73.583 67.4937 73.66 67.2371 73.814C66.9804 73.9633 66.7751 74.1663 66.6211 74.423C66.4671 74.6797 66.3901 74.9643 66.3901 75.277V79.309H64.9341Z" fill="#71A7C6"></path><path d="M72.12 79.442C71.7513 79.4187 71.392 79.344 71.042 79.218C70.692 79.092 70.384 78.9217 70.118 78.707C69.8567 78.4877 69.6607 78.231 69.53 77.937L70.769 77.405C70.8297 77.531 70.9347 77.6547 71.084 77.776C71.238 77.8973 71.4177 77.9977 71.623 78.077C71.8283 78.1517 72.043 78.189 72.267 78.189C72.4863 78.189 72.6893 78.1587 72.876 78.098C73.0673 78.0327 73.2237 77.9347 73.345 77.804C73.4663 77.6733 73.527 77.517 73.527 77.335C73.527 77.1297 73.457 76.971 73.317 76.859C73.1817 76.7423 73.0113 76.6537 72.806 76.593C72.6007 76.5323 72.3953 76.474 72.19 76.418C71.7327 76.3153 71.3127 76.1753 70.93 75.998C70.552 75.816 70.251 75.585 70.027 75.305C69.803 75.0203 69.691 74.6727 69.691 74.262C69.691 73.814 69.8123 73.4267 70.055 73.1C70.2977 72.7687 70.615 72.5143 71.007 72.337C71.4037 72.1597 71.826 72.071 72.274 72.071C72.834 72.071 73.3473 72.19 73.814 72.428C74.2807 72.666 74.6377 72.9927 74.885 73.408L73.73 74.094C73.66 73.954 73.555 73.828 73.415 73.716C73.275 73.604 73.1163 73.5153 72.939 73.45C72.7617 73.38 72.5773 73.3403 72.386 73.331C72.148 73.3217 71.9263 73.3497 71.721 73.415C71.5203 73.4757 71.3593 73.5737 71.238 73.709C71.1167 73.8443 71.056 74.017 71.056 74.227C71.056 74.4323 71.1283 74.5863 71.273 74.689C71.4177 74.787 71.5997 74.8663 71.819 74.927C72.043 74.9877 72.2717 75.0553 72.505 75.13C72.9203 75.2607 73.31 75.4217 73.674 75.613C74.038 75.7997 74.332 76.0307 74.556 76.306C74.78 76.5813 74.8873 76.9173 74.878 77.314C74.878 77.7527 74.745 78.1377 74.479 78.469C74.2177 78.8003 73.877 79.0523 73.457 79.225C73.037 79.3977 72.5913 79.47 72.12 79.442Z" fill="#71A7C6"></path><path d="M15.8505 61.509V50.309H19.7065C20.3092 50.309 20.8532 50.4583 21.3385 50.757C21.8292 51.0557 22.2185 51.4583 22.5065 51.965C22.7999 52.4717 22.9465 53.0317 22.9465 53.645C22.9465 54.269 22.7972 54.8343 22.4985 55.341C22.2052 55.8423 21.8132 56.2423 21.3225 56.541C20.8319 56.8397 20.2932 56.989 19.7065 56.989H17.5145V61.509H15.8505ZM17.5145 55.325H19.5385C19.8585 55.325 20.1492 55.245 20.4105 55.085C20.6772 54.925 20.8879 54.7117 21.0425 54.445C21.2025 54.1783 21.2825 53.877 21.2825 53.541C21.2825 53.205 21.2025 52.9037 21.0425 52.637C20.8879 52.365 20.6772 52.1517 20.4105 51.997C20.1492 51.837 19.8585 51.757 19.5385 51.757H17.5145V55.325Z" fill="#83C5E2"></path><path d="M24.4755 61.509V49.509H26.1395V61.509H24.4755Z" fill="#83C5E2"></path><path d="M34.1683 53.509H35.8323V61.509H34.1603L34.0963 60.349C33.8616 60.7597 33.5443 61.0903 33.1443 61.341C32.7443 61.5917 32.2723 61.717 31.7283 61.717C31.1416 61.717 30.5896 61.6077 30.0723 61.389C29.5549 61.165 29.0989 60.8557 28.7043 60.461C28.3149 60.0663 28.0109 59.613 27.7923 59.101C27.5736 58.5837 27.4643 58.029 27.4643 57.437C27.4643 56.8663 27.5709 56.3303 27.7843 55.829C27.9976 55.3223 28.2936 54.8797 28.6723 54.501C29.0509 54.1223 29.4883 53.8263 29.9843 53.613C30.4856 53.3943 31.0216 53.285 31.5923 53.285C32.1736 53.285 32.6856 53.4183 33.1283 53.685C33.5763 53.9463 33.9469 54.2823 34.2403 54.693L34.1683 53.509ZM31.6883 60.109C32.1576 60.109 32.5683 59.9943 32.9203 59.765C33.2723 59.5303 33.5443 59.2157 33.7363 58.821C33.9336 58.4263 34.0323 57.989 34.0323 57.509C34.0323 57.0237 33.9336 56.5837 33.7363 56.189C33.5389 55.7943 33.2643 55.4823 32.9123 55.253C32.5656 55.0183 32.1576 54.901 31.6883 54.901C31.2243 54.901 30.8003 55.0183 30.4163 55.253C30.0323 55.4877 29.7283 55.8023 29.5043 56.197C29.2803 56.5917 29.1683 57.029 29.1683 57.509C29.1683 57.9943 29.2829 58.4343 29.5123 58.829C29.7469 59.2183 30.0536 59.5303 30.4323 59.765C30.8163 59.9943 31.2349 60.109 31.6883 60.109Z" fill="#83C5E2"></path><path d="M42.5649 53.509H44.3409L39.9569 65.509H38.1889L39.6369 61.509L36.7649 53.509H38.5809L40.4689 59.229L42.5649 53.509Z" fill="#83C5E2"></path><path d="M58.26 50.309V51.973H54.692V61.509H53.028V51.973H49.468V50.309H58.26Z" fill="#83C5E2"></path><path d="M59.0693 53.509H60.7333V61.509H59.0693V53.509ZM59.9173 52.349C59.6613 52.349 59.4479 52.2663 59.2773 52.101C59.1066 51.9357 59.0213 51.7277 59.0213 51.477C59.0213 51.2317 59.1066 51.0263 59.2773 50.861C59.4479 50.6903 59.6586 50.605 59.9093 50.605C60.1546 50.605 60.3626 50.6903 60.5333 50.861C60.7039 51.0263 60.7893 51.2317 60.7893 51.477C60.7893 51.7277 60.7039 51.9357 60.5333 52.101C60.3679 52.2663 60.1626 52.349 59.9173 52.349Z" fill="#83C5E2"></path><path d="M62.5849 61.509V53.509H64.2489V54.357C64.5262 54.0263 64.8649 53.765 65.2649 53.573C65.6702 53.381 66.1076 53.285 66.5769 53.285C67.1476 53.285 67.6729 53.4237 68.1529 53.701C68.6329 53.973 69.0142 54.3357 69.2969 54.789C69.5796 54.3357 69.9556 53.973 70.4249 53.701C70.8996 53.4237 71.4222 53.285 71.9929 53.285C72.5849 53.285 73.1236 53.429 73.6089 53.717C74.0942 54.005 74.4809 54.3917 74.7689 54.877C75.0569 55.3623 75.2009 55.901 75.2009 56.493V61.509H73.5369V56.917C73.5369 56.565 73.4516 56.2423 73.2809 55.949C73.1102 55.6557 72.8809 55.4183 72.5929 55.237C72.3049 55.0557 71.9849 54.965 71.6329 54.965C71.2809 54.965 70.9609 55.0503 70.6729 55.221C70.3849 55.3917 70.1556 55.6237 69.9849 55.917C69.8142 56.2103 69.7289 56.5437 69.7289 56.917V61.509H68.0649V56.917C68.0649 56.5437 67.9796 56.2103 67.8089 55.917C67.6382 55.6237 67.4062 55.3917 67.1129 55.221C66.8249 55.0503 66.5049 54.965 66.1529 54.965C65.8062 54.965 65.4862 55.0557 65.1929 55.237C64.9049 55.4183 64.6756 55.6557 64.5049 55.949C64.3342 56.2423 64.2489 56.565 64.2489 56.917V61.509H62.5849Z" fill="#83C5E2"></path><path d="M80.1674 61.717C79.4314 61.717 78.7594 61.5277 78.1514 61.149C77.5487 60.7703 77.0661 60.2637 76.7034 59.629C76.3461 58.989 76.1674 58.2823 76.1674 57.509C76.1674 56.9223 76.2714 56.3757 76.4794 55.869C76.6874 55.357 76.9727 54.909 77.3354 54.525C77.7034 54.1357 78.1301 53.8317 78.6154 53.613C79.1007 53.3943 79.6181 53.285 80.1674 53.285C80.7807 53.285 81.3434 53.413 81.8554 53.669C82.3674 53.9197 82.8047 54.269 83.1674 54.717C83.5301 55.1597 83.7967 55.6717 83.9674 56.253C84.1381 56.829 84.1887 57.4423 84.1194 58.093H77.9514C78.0207 58.461 78.1541 58.7943 78.3514 59.093C78.5541 59.3863 78.8101 59.6183 79.1194 59.789C79.4341 59.9597 79.7834 60.0477 80.1674 60.053C80.5727 60.053 80.9407 59.9517 81.2714 59.749C81.6074 59.5463 81.8821 59.2663 82.0954 58.909L83.7834 59.301C83.4634 60.0103 82.9807 60.5917 82.3354 61.045C81.6901 61.493 80.9674 61.717 80.1674 61.717ZM77.8954 56.821H82.4394C82.3861 56.437 82.2501 56.0903 82.0314 55.781C81.8181 55.4663 81.5487 55.2183 81.2234 55.037C80.9034 54.8503 80.5514 54.757 80.1674 54.757C79.7887 54.757 79.4367 54.8477 79.1114 55.029C78.7914 55.2103 78.5247 55.4583 78.3114 55.773C78.1034 56.0823 77.9647 56.4317 77.8954 56.821Z" fill="#83C5E2"></path><path d="M54.5714 22.7947H52.8571V21.0804C52.8571 20.765 52.6012 20.509 52.2857 20.509H47.7143C47.3989 20.509 47.1429 20.765 47.1429 21.0804V22.7947H45.4286C43.8526 22.7947 42.5715 24.077 42.5715 25.6519V41.6519C42.5715 43.2267 43.8526 44.509 45.4286 44.509H54.5715C56.1475 44.509 57.4286 43.2267 57.4286 41.6519V25.6519C57.4286 24.077 56.1474 22.7947 54.5714 22.7947ZM53.9543 32.7342L50.5257 40.7341C50.4343 40.9467 50.2252 41.0804 50 41.0804C49.9623 41.0804 49.9246 41.077 49.8846 41.069C49.6194 41.0142 49.4286 40.7799 49.4286 40.509V35.3662H46.5714C46.3794 35.3662 46.2 35.2702 46.0949 35.109C45.9886 34.9479 45.9714 34.7456 46.0457 34.5696L49.4743 26.5696C49.5817 26.3205 49.84 26.1799 50.1155 26.2348C50.3806 26.2896 50.5715 26.5239 50.5715 26.7948V31.9376H53.4286C53.6206 31.9376 53.8 32.0336 53.9052 32.1948C54.0114 32.3547 54.0286 32.557 53.9543 32.7342Z" fill="#83C5E2"></path></svg> 