<?xml version="1.0" encoding="UTF-8"?> <svg xmlns="http://www.w3.org/2000/svg" width="18" height="19" viewBox="0 0 18 19" fill="none"><g clip-path="url(#clip0_18511_58373)"><path d="M14.0625 7.25H13.5V5C13.5 2.51818 11.4818 0.5 9 0.5C6.51818 0.5 4.5 2.51818 4.5 5V7.25H3.9375C3.00751 7.25 2.25 8.00667 2.25 8.9375V16.8125C2.25 17.7433 3.00751 18.5 3.9375 18.5H14.0625C14.9925 18.5 15.75 17.7433 15.75 16.8125V8.9375C15.75 8.00667 14.9925 7.25 14.0625 7.25ZM6.00005 5C6.00005 3.34544 7.34548 2.00005 9 2.00005C10.6545 2.00005 12 3.34548 12 5V7.25H6.00005V5Z" fill="#E14A5C"></path><path d="M14.0625 7.25H13.5V5C13.5 2.51818 11.4818 0.5 9 0.5C6.51818 0.5 4.5 2.51818 4.5 5V7.25H3.9375C3.00751 7.25 2.25 8.00667 2.25 8.9375V16.8125C2.25 17.7433 3.00751 18.5 3.9375 18.5H14.0625C14.9925 18.5 15.75 17.7433 15.75 16.8125V8.9375C15.75 8.00667 14.9925 7.25 14.0625 7.25ZM6.00005 5C6.00005 3.34544 7.34548 2.00005 9 2.00005C10.6545 2.00005 12 3.34548 12 5V7.25H6.00005V5Z" fill="#262626" fill-opacity="0.9"></path></g><defs><clipPath id="clip0_18511_58373"><rect width="18" height="18" fill="white" transform="translate(0 0.5)"></rect></clipPath></defs></svg> 