<?xml version="1.0" encoding="UTF-8"?> <svg xmlns="http://www.w3.org/2000/svg" width="512" height="82" viewBox="0 0 512 82" fill="none"><path d="M115.712 71H105.548L91.52 29H101.558L110.672 56.174L119.744 29H129.866L138.938 56.174L148.052 29H158.09L144.062 71H133.898L124.784 43.7L115.712 71Z" fill="#333333"></path><path d="M181.18 72.092C177.316 72.092 173.788 71.098 170.596 69.11C167.432 67.122 164.898 64.462 162.994 61.13C161.118 57.77 160.18 54.06 160.18 50C160.18 46.92 160.726 44.05 161.818 41.39C162.91 38.702 164.408 36.35 166.312 34.334C168.244 32.29 170.484 30.694 173.032 29.546C175.58 28.398 178.296 27.824 181.18 27.824C185.044 27.824 188.558 28.818 191.722 30.806C194.914 32.794 197.448 35.468 199.324 38.828C201.228 42.188 202.18 45.912 202.18 50C202.18 53.052 201.634 55.908 200.542 58.568C199.45 61.228 197.938 63.58 196.006 65.624C194.102 67.64 191.876 69.222 189.328 70.37C186.808 71.518 184.092 72.092 181.18 72.092ZM181.18 61.844C183.224 61.844 185.058 61.298 186.682 60.206C188.306 59.114 189.58 57.672 190.504 55.88C191.456 54.088 191.932 52.128 191.932 50C191.932 47.816 191.442 45.828 190.462 44.036C189.51 42.216 188.208 40.774 186.556 39.71C184.932 38.618 183.14 38.072 181.18 38.072C179.164 38.072 177.344 38.618 175.72 39.71C174.096 40.802 172.808 42.258 171.856 44.078C170.904 45.898 170.428 47.872 170.428 50C170.428 52.212 170.918 54.214 171.898 56.006C172.878 57.798 174.18 59.226 175.804 60.29C177.456 61.326 179.248 61.844 181.18 61.844Z" fill="#333333"></path><path d="M227.364 72.092C223.5 72.092 219.972 71.098 216.78 69.11C213.616 67.122 211.082 64.462 209.178 61.13C207.302 57.77 206.364 54.06 206.364 50C206.364 46.92 206.91 44.05 208.002 41.39C209.094 38.702 210.592 36.35 212.496 34.334C214.428 32.29 216.668 30.694 219.216 29.546C221.764 28.398 224.48 27.824 227.364 27.824C231.228 27.824 234.742 28.818 237.906 30.806C241.098 32.794 243.632 35.468 245.508 38.828C247.412 42.188 248.364 45.912 248.364 50C248.364 53.052 247.818 55.908 246.726 58.568C245.634 61.228 244.122 63.58 242.19 65.624C240.286 67.64 238.06 69.222 235.512 70.37C232.992 71.518 230.276 72.092 227.364 72.092ZM227.364 61.844C229.408 61.844 231.242 61.298 232.866 60.206C234.49 59.114 235.764 57.672 236.688 55.88C237.64 54.088 238.116 52.128 238.116 50C238.116 47.816 237.626 45.828 236.646 44.036C235.694 42.216 234.392 40.774 232.74 39.71C231.116 38.618 229.324 38.072 227.364 38.072C225.348 38.072 223.528 38.618 221.904 39.71C220.28 40.802 218.992 42.258 218.04 44.078C217.088 45.898 216.612 47.872 216.612 50C216.612 52.212 217.102 54.214 218.082 56.006C219.062 57.798 220.364 59.226 221.988 60.29C223.64 61.326 225.432 61.844 227.364 61.844Z" fill="#333333"></path><path d="M286.819 8H297.067V71H286.819V65.75C285.475 67.626 283.781 69.152 281.737 70.328C279.693 71.504 277.327 72.092 274.639 72.092C271.587 72.092 268.731 71.518 266.071 70.37C263.411 69.222 261.059 67.64 259.015 65.624C256.999 63.58 255.417 61.228 254.269 58.568C253.121 55.908 252.547 53.052 252.547 50C252.547 46.948 253.121 44.092 254.269 41.432C255.417 38.772 256.999 36.434 259.015 34.418C261.059 32.374 263.411 30.778 266.071 29.63C268.731 28.482 271.587 27.908 274.639 27.908C277.327 27.908 279.693 28.496 281.737 29.672C283.781 30.82 285.475 32.346 286.819 34.25V8ZM274.765 62.222C276.949 62.222 278.881 61.676 280.561 60.584C282.241 59.492 283.557 58.022 284.509 56.174C285.461 54.298 285.937 52.24 285.937 50C285.937 47.732 285.461 45.674 284.509 43.826C283.557 41.95 282.227 40.466 280.519 39.374C278.839 38.282 276.921 37.736 274.765 37.736C272.609 37.736 270.635 38.296 268.843 39.416C267.079 40.508 265.665 41.978 264.601 43.826C263.565 45.674 263.047 47.732 263.047 50C263.047 52.268 263.579 54.326 264.643 56.174C265.707 58.022 267.121 59.492 268.885 60.584C270.677 61.676 272.637 62.222 274.765 62.222Z" fill="#333333"></path><path d="M307.157 71V29H317.405V32.738C318.833 31.226 320.541 30.036 322.529 29.168C324.517 28.272 326.659 27.824 328.955 27.824C331.867 27.824 334.541 28.51 336.977 29.882C339.441 31.254 341.401 33.088 342.857 35.384C344.341 33.088 346.301 31.254 348.737 29.882C351.173 28.51 353.847 27.824 356.759 27.824C359.839 27.824 362.625 28.58 365.117 30.092C367.637 31.576 369.639 33.578 371.123 36.098C372.635 38.59 373.391 41.376 373.391 44.456V71H363.143V47.186C363.143 45.562 362.737 44.078 361.925 42.734C361.141 41.362 360.077 40.27 358.733 39.458C357.417 38.618 355.933 38.198 354.281 38.198C352.629 38.198 351.131 38.604 349.787 39.416C348.471 40.2 347.407 41.264 346.595 42.608C345.783 43.952 345.377 45.478 345.377 47.186V71H335.129V47.186C335.129 45.478 334.737 43.952 333.953 42.608C333.169 41.264 332.105 40.2 330.761 39.416C329.417 38.604 327.919 38.198 326.267 38.198C324.643 38.198 323.159 38.618 321.815 39.458C320.471 40.27 319.393 41.362 318.581 42.734C317.797 44.078 317.405 45.562 317.405 47.186V71H307.157Z" fill="#333333"></path><path d="M412.653 29H422.901V71H412.653L412.191 65.792C411.043 67.668 409.517 69.194 407.613 70.37C405.737 71.518 403.511 72.092 400.935 72.092C397.827 72.092 394.915 71.504 392.199 70.328C389.483 69.152 387.089 67.528 385.017 65.456C382.973 63.384 381.363 60.99 380.187 58.274C379.039 55.558 378.465 52.646 378.465 49.538C378.465 46.542 379.011 43.728 380.103 41.096C381.223 38.464 382.777 36.154 384.765 34.166C386.753 32.178 389.049 30.624 391.653 29.504C394.257 28.384 397.057 27.824 400.053 27.824C402.825 27.824 405.303 28.44 407.487 29.672C409.699 30.904 411.575 32.472 413.115 34.376L412.653 29ZM400.683 62.222C402.867 62.222 404.799 61.676 406.479 60.584C408.159 59.492 409.475 58.022 410.427 56.174C411.379 54.298 411.855 52.24 411.855 50C411.855 47.732 411.379 45.674 410.427 43.826C409.475 41.95 408.145 40.466 406.437 39.374C404.757 38.282 402.839 37.736 400.683 37.736C398.527 37.736 396.553 38.296 394.761 39.416C392.997 40.508 391.583 41.978 390.519 43.826C389.483 45.674 388.965 47.732 388.965 50C388.965 52.268 389.497 54.326 390.561 56.174C391.625 58.022 393.039 59.492 394.803 60.584C396.595 61.676 398.555 62.222 400.683 62.222Z" fill="#333333"></path><path d="M431.312 71L431.27 29H441.518L441.56 32.738C442.988 31.226 444.696 30.036 446.684 29.168C448.672 28.272 450.814 27.824 453.11 27.824C454.65 27.824 456.19 28.048 457.73 28.496L453.698 38.828C452.634 38.408 451.57 38.198 450.506 38.198C448.854 38.198 447.342 38.604 445.97 39.416C444.626 40.2 443.548 41.278 442.736 42.65C441.952 43.994 441.56 45.492 441.56 47.144V71H431.312Z" fill="#333333"></path><path d="M486.103 39.248H477.955V71H467.707V39.248H461.491V29H467.707V15.812H477.955V29H486.103V39.248Z" fill="#333333"></path><path d="M496 71C494.348 71 492.935 70.4254 491.761 69.2762C490.587 68.0829 490 66.6685 490 65.0331C490 63.3536 490.587 61.9392 491.761 60.7901C492.935 59.5967 494.348 59 496 59C497.609 59 499 59.5967 500.174 60.7901C501.391 61.9392 502 63.3536 502 65.0331C502 66.6685 501.391 68.0829 500.174 69.2762C499 70.4254 497.609 71 496 71Z" fill="#7354EF"></path><path d="M14.1214 22.3366C11.5478 24.6732 11.1738 28.5375 10.4259 36.2662L8.75849 53.4956C7.46937 66.8165 6.82481 73.4769 10.6939 77.7385C14.5629 82 21.2545 82 34.6376 82H47.3624C60.7455 82 67.4371 82 71.3061 77.7385C75.1752 73.4769 74.5306 66.8165 73.2415 53.4956L71.5741 36.2662C70.8262 28.5375 70.4522 24.6732 67.8786 22.3366C65.305 20 61.4226 20 53.6578 20H28.3422C20.5774 20 16.695 20 14.1214 22.3366Z" fill="#7354EF"></path><path d="M14.1214 22.3366C11.5478 24.6732 11.1738 28.5375 10.4259 36.2662L8.75849 53.4956C7.46937 66.8165 6.82481 73.4769 10.6939 77.7385C14.5629 82 21.2545 82 34.6376 82H47.3624C60.7455 82 67.4371 82 71.3061 77.7385C75.1752 73.4769 74.5306 66.8165 73.2415 53.4956L71.5741 36.2662C70.8262 28.5375 70.4522 24.6732 67.8786 22.3366C65.305 20 61.4226 20 53.6578 20H28.3422C20.5774 20 16.695 20 14.1214 22.3366Z" fill="url(#paint0_linear_15064_26019)" fill-opacity="0.8" style="mix-blend-mode:hard-light"></path><path d="M28.8502 15.9963C30.4971 16.0786 31.9001 14.8167 31.995 13.1734C32.0237 12.8259 32.0921 12.4805 32.1739 12.1422C32.3467 11.4268 32.6644 10.4973 33.2315 9.59C34.2627 7.93998 36.316 6 41 6C45.684 6 47.7372 7.93998 48.7685 9.59C49.3356 10.4973 49.6532 11.4268 49.8261 12.1422C49.9079 12.4805 49.9762 12.8259 50.005 13.1734C50.0999 14.8167 51.5029 16.0786 53.1498 15.9963C54.8046 15.9135 56.079 14.505 55.9963 12.8502C55.9963 12.8502 55.8353 11.4653 55.6582 10.7328C55.378 9.57318 54.8519 8.00269 53.8565 6.41C51.7627 3.06002 47.816 0 41 0C34.184 0 30.2372 3.06002 28.1435 6.41C27.1481 8.00269 26.622 9.57318 26.3417 10.7328C26.2407 11.1508 25.9979 12.906 26.0037 12.8502C25.921 14.505 27.1954 15.9135 28.8502 15.9963Z" fill="#7354EF"></path><path d="M28.8502 15.9963C30.4971 16.0786 31.9001 14.8167 31.995 13.1734C32.0237 12.8259 32.0921 12.4805 32.1739 12.1422C32.3467 11.4268 32.6644 10.4973 33.2315 9.59C34.2627 7.93998 36.316 6 41 6C45.684 6 47.7372 7.93998 48.7685 9.59C49.3356 10.4973 49.6532 11.4268 49.8261 12.1422C49.9079 12.4805 49.9762 12.8259 50.005 13.1734C50.0999 14.8167 51.5029 16.0786 53.1498 15.9963C54.8046 15.9135 56.079 14.505 55.9963 12.8502C55.9963 12.8502 55.8353 11.4653 55.6582 10.7328C55.378 9.57318 54.8519 8.00269 53.8565 6.41C51.7627 3.06002 47.816 0 41 0C34.184 0 30.2372 3.06002 28.1435 6.41C27.1481 8.00269 26.622 9.57318 26.3417 10.7328C26.2407 11.1508 25.9979 12.906 26.0037 12.8502C25.921 14.505 27.1954 15.9135 28.8502 15.9963Z" fill="url(#paint1_linear_15064_26019)" fill-opacity="0.8" style="mix-blend-mode:hard-light"></path><path fill-rule="evenodd" clip-rule="evenodd" d="M14.1214 22.3366C11.5478 24.6732 11.1738 28.5375 10.4259 36.2662L8.75849 53.4956C7.46937 66.8165 6.82481 73.4769 10.6939 77.7385C14.5629 82 21.2545 82 34.6376 82H47.3624C60.7455 82 67.4371 82 71.3061 77.7385C75.1752 73.4769 74.5306 66.8165 73.2415 53.4956L71.5741 36.2662C70.8262 28.5375 70.4522 24.6732 67.8786 22.3366C65.305 20 61.4226 20 53.6578 20H28.3422C20.5774 20 16.695 20 14.1214 22.3366ZM13.4119 36.5551C13.7936 32.6108 14.058 29.9399 14.5135 27.9482C14.9499 26.04 15.4807 25.1544 16.1379 24.5577C16.7952 23.961 17.7277 23.518 19.6691 23.2674C21.6955 23.0058 24.3794 23 28.3422 23H53.6578C57.6206 23 60.3045 23.0058 62.3309 23.2674C64.2723 23.518 65.2048 23.961 65.8621 24.5577C66.5193 25.1544 67.0501 26.04 67.4865 27.9482C67.942 29.9399 68.2064 32.6108 68.5881 36.5551L70.2555 53.7846C70.9086 60.5335 71.3614 65.2833 71.2107 68.8891C71.0637 72.4087 70.3521 74.3263 69.085 75.7219C67.8179 77.1175 65.9778 78.0106 62.4887 78.4959C58.9142 78.9931 54.1429 79 47.3624 79H34.6376C27.8571 79 23.0858 78.9931 19.5113 78.4959C16.0222 78.0106 14.1821 77.1175 12.915 75.7219C11.6479 74.3263 10.9363 72.4086 10.7892 68.8891C10.6386 65.2833 11.0914 60.5335 11.7445 53.7845L13.4119 36.5551Z" fill="url(#paint2_linear_15064_26019)" fill-opacity="0.4"></path><path d="M43.2938 30.7231C41.9166 29.759 40.0834 29.759 38.7062 30.7231L28.7062 37.7231C26.8964 38.9899 26.4562 41.4841 27.7231 43.2938C28.9899 45.1036 31.4841 45.5438 33.2938 44.2769L38.1327 40.8897C39.8543 39.6846 42.1457 39.6846 43.8673 40.8897L48.7062 44.2769C50.5159 45.5438 53.0101 45.1036 54.2769 43.2938C55.5438 41.4841 55.1036 38.9899 53.2938 37.7231L43.2938 30.7231Z" fill="white"></path><path d="M56.4388 55.8295L43.4388 45.8295C42.001 44.7235 39.999 44.7235 38.5612 45.8295L25.5612 55.8295C23.8101 57.1764 23.4826 59.6878 24.8295 61.4388C26.1764 63.1899 28.6878 63.5174 30.4388 62.1705L35.3903 58.3617C36.0479 57.8558 37 58.3246 37 59.1543V70C37 72.2091 38.7909 74 41 74C43.2091 74 45 72.2091 45 70V59.1543C45 58.3246 45.9521 57.8558 46.6097 58.3617L51.5612 62.1705C53.3122 63.5174 55.8236 63.1899 57.1705 61.4388C58.5174 59.6878 58.1899 57.1764 56.4388 55.8295Z" fill="white"></path><defs><linearGradient id="paint0_linear_15064_26019" x1="26.8732" y1="-4.42937e-07" x2="66.6838" y2="75.9415" gradientUnits="userSpaceOnUse"><stop stop-color="#C5C5C5"></stop><stop offset="0.104167" stop-color="#B4B4B4"></stop><stop offset="0.317708" stop-color="#929292"></stop><stop offset="0.574771" stop-color="#7C7C7C"></stop><stop offset="0.814649" stop-color="#5F5F5F"></stop><stop offset="1" stop-color="#494949"></stop></linearGradient><linearGradient id="paint1_linear_15064_26019" x1="26.8732" y1="-4.42937e-07" x2="66.6838" y2="75.9415" gradientUnits="userSpaceOnUse"><stop stop-color="#C5C5C5"></stop><stop offset="0.104167" stop-color="#B4B4B4"></stop><stop offset="0.317708" stop-color="#929292"></stop><stop offset="0.574771" stop-color="#7C7C7C"></stop><stop offset="0.814649" stop-color="#5F5F5F"></stop><stop offset="1" stop-color="#494949"></stop></linearGradient><linearGradient id="paint2_linear_15064_26019" x1="7.76056" y1="20" x2="39.049" y2="82.9694" gradientUnits="userSpaceOnUse"><stop stop-color="white"></stop><stop offset="0.638162" stop-color="white" stop-opacity="0"></stop></linearGradient></defs></svg> 