<?xml version="1.0" encoding="UTF-8"?> <svg xmlns="http://www.w3.org/2000/svg" width="24" height="24" viewBox="0 0 24 24" fill="none"><path d="M13.3828 10.424V20.7865C13.3828 21.6839 14.1129 22.414 15.0104 22.414H17.5209C18.4183 22.414 19.1484 21.6839 19.1484 20.7865V10.424L22.1143 6.04607C22.3294 5.72862 22.344 5.31617 22.152 4.9843C20.9781 2.95592 18.7835 1.58594 16.2656 1.58594C13.7477 1.58594 11.5531 2.95592 10.3792 4.9843C10.1872 5.31617 10.2018 5.72862 10.4169 6.04607L13.3828 10.424ZM15.3828 11.1172C15.9712 11.1172 16.56 11.1172 17.1484 11.1172V20.414H15.3828V11.1172ZM18.2072 8.24742C18.2129 7.82376 17.9467 7.42681 17.5233 7.28567C17.0064 7.11338 16.4483 7.38665 16.2656 7.89709C16.083 7.38665 15.5249 7.11338 15.008 7.28567C14.5845 7.42682 14.3184 7.82383 14.324 8.24753L12.4483 5.47885C13.326 4.32698 14.7095 3.58594 16.2656 3.58594C17.8217 3.58594 19.2052 4.32697 20.0829 5.47885L18.2072 8.24742Z" fill="#1E1E1E"></path><path d="M9.73429 8.862C9.73429 8.44137 9.47459 8.0814 9.10679 7.93368V3.21357C9.10679 2.78785 8.93596 2.30842 8.49624 2.01071C8.05653 1.71301 7.54794 1.73245 7.15267 1.89056L5.18009 2.67958C4.79643 2.83305 4.50426 3.11223 4.31186 3.3964C4.11947 3.68057 3.96875 4.05553 3.96875 4.46876V7.93361C3.60085 8.08128 3.34106 8.4413 3.34106 8.862V14.8372C2.97329 14.985 2.71362 15.3449 2.71362 15.7655V20.7863C2.71362 21.6837 3.44368 22.4139 4.3412 22.4139H8.73443C9.63187 22.4139 10.362 21.6838 10.362 20.7863V15.7655C10.362 15.3448 10.1022 14.9848 9.73429 14.8371V8.862ZM5.34106 14.7655V9.862H7.73429V14.7655H5.34106ZM8.36204 16.7656V20.4139H4.71362V16.7656H8.36204ZM5.96875 4.51819L7.10679 4.06297V7.86199H5.96875V4.51819Z" fill="#1E1E1E"></path></svg> 