<?xml version="1.0" encoding="UTF-8"?> <svg xmlns="http://www.w3.org/2000/svg" width="24" height="24" viewBox="0 0 24 24" fill="none"><path d="M12 16.1048C11.3814 16.1048 10.8393 15.7726 10.5436 15.2715C10.2629 14.7959 9.64986 14.6378 9.17421 14.9185C8.69856 15.1991 8.5405 15.8123 8.82118 16.2879C9.46119 17.3725 10.644 18.1048 12 18.1048C13.356 18.1048 14.5388 17.3725 15.1788 16.2879C15.4595 15.8123 15.3014 15.1991 14.8258 14.9185C14.3502 14.6378 13.737 14.7959 13.4564 15.2715C13.1607 15.7726 12.6185 16.1048 12 16.1048Z" fill="#1E1E1E"></path><path d="M11.9885 4.15235H11.5994C10.8868 4.14816 10.3103 3.56915 10.3103 2.85547C10.3103 2.30319 9.86259 1.85547 9.3103 1.85547C8.75802 1.85547 8.3103 2.30319 8.3103 2.85547C8.3103 3.29605 8.39672 3.71645 8.55354 4.10063C8.01438 3.94336 7.62048 3.44542 7.62048 2.85549C7.62048 2.3032 7.17277 1.85549 6.62048 1.85549C6.0682 1.85549 5.62048 2.3032 5.62048 2.85549C5.62048 4.02241 6.22674 5.04775 7.14149 5.63368C5.60856 6.66714 4.42272 8.17582 3.79476 9.94817C3.29553 10.0866 2.83535 10.3558 2.46908 10.7221C1.92474 11.267 1.58594 12.0225 1.58594 12.8554C1.58594 14.2416 2.5206 15.4096 3.7948 15.7628C4.99109 19.1391 8.21193 21.5585 12 21.5585C15.788 21.5585 19.0089 19.1391 20.2051 15.7628C21.4793 15.4096 22.414 14.2416 22.414 12.8554C22.414 11.4622 21.447 10.2926 20.2052 9.94817C19.0089 6.57184 15.7881 4.15234 12 4.15234L11.9885 4.15235ZM12 9.16572C11.4654 9.16572 10.995 8.88803 10.7262 8.46429C10.4304 7.99792 9.81247 7.85968 9.3461 8.15551C8.87973 8.45135 8.74149 9.06924 9.03733 9.53561C9.65749 10.5132 10.7522 11.1657 12 11.1657C13.9367 11.1657 15.5067 9.59576 15.5067 7.65905C15.5067 7.47445 15.4925 7.29317 15.465 7.11628C16.9215 7.99744 18.0159 9.41734 18.471 11.1C18.5871 11.5294 18.9728 11.8305 19.4175 11.8388C19.969 11.8492 20.414 12.3002 20.414 12.8554C20.414 13.4104 19.9695 13.8616 19.4174 13.872C18.9727 13.8804 18.587 14.1814 18.471 14.6108C17.6999 17.4619 15.0935 19.5585 12 19.5585C8.90646 19.5585 6.3 17.4619 5.52899 14.6108C5.4129 14.1814 5.02721 13.8804 4.58255 13.872C4.03046 13.8616 3.58594 13.4104 3.58594 12.8554C3.58594 12.3002 4.03093 11.8492 4.58242 11.8388C5.02713 11.8305 5.41288 11.5294 5.52899 11.1C6.29807 8.25605 8.89347 6.1628 11.9768 6.15238H12C12.8322 6.15238 13.5067 6.82694 13.5067 7.65905C13.5067 8.49115 12.8322 9.16572 12 9.16572Z" fill="#1E1E1E"></path><path d="M6.52365 13.1389C6.17082 12.714 6.23018 12.0827 6.65506 11.7299C7.1988 11.2799 7.9336 11 8.63786 11C9.34411 11 10.0632 11.2808 10.6123 11.7231C11.0302 12.0657 11.0987 12.7214 10.752 13.1389C10.4013 13.5612 9.77619 13.6215 9.35142 13.2756L9.34869 13.2735C9.15116 13.1227 8.88919 13 8.63786 13C8.3865 13 8.12454 13.1227 7.92698 13.2735L7.92426 13.2756C7.49949 13.6215 6.87439 13.5612 6.52365 13.1389Z" fill="#1E1E1E"></path><path d="M17.4763 13.1389C17.1255 13.5612 16.5004 13.6215 16.0756 13.2756C15.8733 13.1198 15.6219 13 15.3621 13C15.1036 13 14.8499 13.1206 14.6485 13.2756C14.2237 13.6215 13.5986 13.5612 13.2479 13.1389C12.8951 12.714 12.9544 12.0827 13.3793 11.7299C13.9257 11.2813 14.6556 11 15.3621 11C16.0628 11 16.7768 11.2765 17.3235 11.7126C17.7453 12.0523 17.8257 12.7181 17.4763 13.1389Z" fill="#1E1E1E"></path></svg> 