<?xml version="1.0" encoding="UTF-8"?> <svg xmlns="http://www.w3.org/2000/svg" width="24" height="24" viewBox="0 0 24 24" fill="none"><path d="M12 16.1047C11.3814 16.1047 10.8393 15.7725 10.5436 15.2714C10.2629 14.7958 9.64982 14.6377 9.17417 14.9184C8.69852 15.199 8.54046 15.8122 8.82114 16.2878C9.46115 17.3724 10.644 18.1047 12 18.1047C13.356 18.1047 14.5388 17.3724 15.1788 16.2878C15.4595 15.8122 15.3014 15.199 14.8258 14.9184C14.3502 14.6377 13.737 14.7958 13.4564 15.2714C13.1607 15.7725 12.6185 16.1047 12 16.1047Z" fill="white"></path><path d="M11.9885 4.15241H11.5994C10.8868 4.14822 10.3103 3.56921 10.3103 2.85553C10.3103 2.30325 9.86259 1.85553 9.3103 1.85553C8.75802 1.85553 8.3103 2.30325 8.3103 2.85553C8.3103 3.29611 8.39672 3.71651 8.55354 4.10069C8.01438 3.94342 7.62048 3.44548 7.62048 2.85555C7.62048 2.30326 7.17277 1.85555 6.62048 1.85555C6.0682 1.85555 5.62048 2.30326 5.62048 2.85555C5.62048 4.02247 6.22674 5.04781 7.14149 5.63374C5.60856 6.6672 4.42272 8.17588 3.79476 9.94823C3.29553 10.0867 2.83535 10.3559 2.46908 10.7222C1.92474 11.2671 1.58594 12.0226 1.58594 12.8555C1.58594 14.2417 2.5206 15.4097 3.7948 15.7629C4.99109 19.1392 8.21193 21.5586 12 21.5586C15.788 21.5586 19.0089 19.1392 20.2051 15.7629C21.4793 15.4097 22.414 14.2417 22.414 12.8555C22.414 11.4623 21.447 10.2927 20.2052 9.94823C19.0089 6.5719 15.7881 4.1524 12 4.1524L11.9885 4.15241ZM12 9.16578C11.4654 9.16578 10.995 8.88809 10.7262 8.46435C10.4304 7.99798 9.81247 7.85974 9.3461 8.15557C8.87973 8.45141 8.74149 9.0693 9.03733 9.53567C9.65749 10.5133 10.7522 11.1658 12 11.1658C13.9367 11.1658 15.5067 9.59582 15.5067 7.65911C15.5067 7.47451 15.4925 7.29323 15.465 7.11634C16.9215 7.9975 18.0159 9.4174 18.471 11.1001C18.5871 11.5295 18.9728 11.8306 19.4175 11.8389C19.969 11.8493 20.414 12.3003 20.414 12.8555C20.414 13.4105 19.9695 13.8617 19.4174 13.8721C18.9727 13.8805 18.587 14.1815 18.471 14.6109C17.6999 17.462 15.0935 19.5586 12 19.5586C8.90646 19.5586 6.3 17.462 5.52899 14.6109C5.4129 14.1815 5.02721 13.8805 4.58255 13.8721C4.03046 13.8617 3.58594 13.4105 3.58594 12.8555C3.58594 12.3003 4.03093 11.8493 4.58242 11.8389C5.02713 11.8306 5.41288 11.5295 5.52899 11.1001C6.29807 8.25611 8.89347 6.16286 11.9768 6.15244H12C12.8322 6.15244 13.5067 6.827 13.5067 7.65911C13.5067 8.49121 12.8322 9.16578 12 9.16578Z" fill="white"></path><path d="M6.52364 13.1389C6.17081 12.714 6.23017 12.0827 6.65505 11.7299C7.19879 11.2799 7.93359 11 8.63785 11C9.3441 11 10.0632 11.2808 10.6123 11.7231C11.0302 12.0657 11.0987 12.7214 10.752 13.1389C10.4013 13.5612 9.77618 13.6215 9.35141 13.2756L9.34868 13.2735C9.15115 13.1227 8.88918 13 8.63785 13C8.38649 13 8.12453 13.1227 7.92697 13.2735L7.92425 13.2756C7.49948 13.6215 6.87438 13.5612 6.52364 13.1389Z" fill="white"></path><path d="M17.4763 13.1389C17.1255 13.5612 16.5004 13.6215 16.0756 13.2756C15.8733 13.1198 15.6219 13 15.3621 13C15.1036 13 14.8499 13.1206 14.6485 13.2756C14.2237 13.6215 13.5986 13.5612 13.2479 13.1389C12.8951 12.714 12.9544 12.0827 13.3793 11.7299C13.9257 11.2813 14.6556 11 15.3621 11C16.0628 11 16.7768 11.2765 17.3235 11.7126C17.7453 12.0523 17.8257 12.7181 17.4763 13.1389Z" fill="white"></path></svg> 