<?xml version="1.0" encoding="UTF-8"?> <svg xmlns="http://www.w3.org/2000/svg" width="32" height="32" viewBox="0 0 32 32" fill="none"><path d="M17.85 2.8125C18.1 2.52083 18.3916 2.27083 18.725 2.0625C19.0583 1.85416 19.4021 1.70833 19.7562 1.625C20.1521 1.52083 20.5583 1.48958 20.975 1.53125C21.4125 1.57291 21.8291 1.69791 22.225 1.90625C22.5791 2.07291 22.8812 2.28125 23.1312 2.53125C23.4021 2.78125 23.6208 3.0625 23.7875 3.375C23.9958 3.77083 24.1312 4.19791 24.1937 4.65625C24.2562 5.09375 24.2354 5.54166 24.1312 6L22.5062 12.5H27.6312C28.8604 12.5 29.8708 12.9687 30.6625 13.9062C31.475 14.8437 31.7771 15.9271 31.5687 17.1562L30.2562 25.0625C29.9854 26.625 29.2458 27.9271 28.0375 28.9687C26.8291 29.9896 25.4333 30.5 23.85 30.5H8.06873C6.54789 30.5 5.24581 29.9687 4.16248 28.9062C3.09998 27.8229 2.56873 26.5208 2.56873 25V17.9687C2.56873 16.4479 3.09998 15.1562 4.16248 14.0937C5.24581 13.0104 6.54789 12.4687 8.06873 12.4687H9.88123L17.85 2.8125ZM20.1625 4.71875L12.0687 14.5V27.5H23.85C24.7041 27.5 25.4541 27.2292 26.1 26.6875C26.7458 26.125 27.1416 25.4167 27.2875 24.5625L28.6 16.6562C28.6625 16.3437 28.5896 16.0729 28.3812 15.8437C28.1937 15.6146 27.9437 15.5 27.6312 15.5H20.5687C20.3396 15.5 20.1208 15.4479 19.9125 15.3437C19.7041 15.2396 19.5271 15.0937 19.3812 14.9062C19.2562 14.7187 19.1625 14.5208 19.1 14.3125C19.0583 14.0833 19.0687 13.8542 19.1312 13.625L21.225 5.25C21.225 5.1875 21.225 5.125 21.225 5.0625C21.225 4.97916 21.2041 4.90625 21.1625 4.84375C21.1416 4.78125 21.1 4.72916 21.0375 4.6875C20.9958 4.64583 20.9541 4.60416 20.9125 4.5625C20.8291 4.54166 20.7562 4.53125 20.6937 4.53125C20.6312 4.51041 20.5583 4.51041 20.475 4.53125C20.4125 4.55208 20.35 4.58333 20.2875 4.625C20.2458 4.64583 20.2041 4.67708 20.1625 4.71875ZM5.56873 17.9687V25C5.56873 25.6875 5.80831 26.2812 6.28748 26.7812C6.78748 27.2604 7.38123 27.5 8.06873 27.5H9.06873V15.4687H8.06873C7.38123 15.4687 6.78748 15.7187 6.28748 16.2187C5.80831 16.6979 5.56873 17.2812 5.56873 17.9687Z" fill="#7354EF"></path></svg> 