<?xml version="1.0" encoding="UTF-8"?> <svg xmlns="http://www.w3.org/2000/svg" width="238" height="38" viewBox="0 0 238 38" fill="none"><path d="M53.8849 33.1998H49.1195L42.5425 13.5406H47.2488L51.5219 26.2601L55.7753 13.5406H60.521L64.7744 26.2601L69.0475 13.5406H73.7538L67.1768 33.1998H62.4114L58.1383 20.4213L53.8849 33.1998Z" fill="white"></path><path d="M84.5796 33.7109C82.768 33.7109 81.1139 33.2457 79.6173 32.3151C78.1339 31.3846 76.9458 30.1395 76.0531 28.5799C75.1736 27.0071 74.7338 25.2706 74.7338 23.3702C74.7338 21.9285 74.9898 20.5851 75.5017 19.34C76.0137 18.0818 76.7161 16.9809 77.6088 16.0373C78.5146 15.0805 79.5648 14.3335 80.7594 13.7961C81.9541 13.2588 83.2274 12.9901 84.5796 12.9901C86.3912 12.9901 88.0388 13.4554 89.5222 14.3859C91.0188 15.3164 92.2069 16.5681 93.0864 18.1408C93.9791 19.7136 94.4255 21.4567 94.4255 23.3702C94.4255 24.7987 94.1695 26.1356 93.6575 27.3807C93.1455 28.6257 92.4366 29.7267 91.5308 30.6834C90.6381 31.6271 89.5944 32.3676 88.3998 32.9049C87.2183 33.4423 85.9449 33.7109 84.5796 33.7109ZM84.5796 28.9141C85.5379 28.9141 86.3978 28.6585 87.1592 28.1474C87.9206 27.6362 88.518 26.9613 88.9512 26.1225C89.3975 25.2837 89.6207 24.3662 89.6207 23.3702C89.6207 22.3479 89.3909 21.4174 88.9315 20.5786C88.4851 19.7267 87.8747 19.0517 87.1001 18.5537C86.3387 18.0425 85.4986 17.787 84.5796 17.787C83.6344 17.787 82.7811 18.0425 82.0197 18.5537C81.2583 19.0648 80.6544 19.7463 80.2081 20.5982C79.7617 21.4501 79.5385 22.3741 79.5385 23.3702C79.5385 24.4056 79.7683 25.3427 80.2278 26.1814C80.6872 27.0202 81.2977 27.6887 82.0591 28.1867C82.8336 28.6716 83.6738 28.9141 84.5796 28.9141Z" fill="white"></path><path d="M106.233 33.7109C104.421 33.7109 102.767 33.2457 101.27 32.3151C99.787 31.3846 98.599 30.1395 97.7063 28.5799C96.8267 27.0071 96.3869 25.2706 96.3869 23.3702C96.3869 21.9285 96.6429 20.5851 97.1549 19.34C97.6669 18.0818 98.3692 16.9809 99.2619 16.0373C100.168 15.0805 101.218 14.3335 102.413 13.7961C103.607 13.2588 104.881 12.9901 106.233 12.9901C108.044 12.9901 109.692 13.4554 111.175 14.3859C112.672 15.3164 113.86 16.5681 114.74 18.1408C115.632 19.7136 116.079 21.4567 116.079 23.3702C116.079 24.7987 115.823 26.1356 115.311 27.3807C114.799 28.6257 114.09 29.7267 113.184 30.6834C112.291 31.6271 111.248 32.3676 110.053 32.9049C108.871 33.4423 107.598 33.7109 106.233 33.7109ZM106.233 28.9141C107.191 28.9141 108.051 28.6585 108.812 28.1474C109.574 27.6362 110.171 26.9613 110.604 26.1225C111.051 25.2837 111.274 24.3662 111.274 23.3702C111.274 22.3479 111.044 21.4174 110.585 20.5786C110.138 19.7267 109.528 19.0517 108.753 18.5537C107.992 18.0425 107.152 17.787 106.233 17.787C105.288 17.787 104.434 18.0425 103.673 18.5537C102.911 19.0648 102.308 19.7463 101.861 20.5982C101.415 21.4501 101.192 22.3741 101.192 23.3702C101.192 24.4056 101.421 25.3427 101.881 26.1814C102.34 27.0202 102.951 27.6887 103.712 28.1867C104.487 28.6716 105.327 28.9141 106.233 28.9141Z" fill="white"></path><path d="M134.109 3.71094H138.913V33.1998H134.109V30.7424C133.478 31.6205 132.684 32.3348 131.726 32.8853C130.767 33.4357 129.658 33.7109 128.398 33.7109C126.967 33.7109 125.628 33.4423 124.381 32.9049C123.134 32.3676 122.031 31.6271 121.073 30.6834C120.127 29.7267 119.386 28.6257 118.847 27.3807C118.309 26.1356 118.04 24.7987 118.04 23.3702C118.04 21.9416 118.309 20.6048 118.847 19.3597C119.386 18.1146 120.127 17.0202 121.073 16.0766C122.031 15.1199 123.134 14.3728 124.381 13.8354C125.628 13.2981 126.967 13.0294 128.398 13.0294C129.658 13.0294 130.767 13.3046 131.726 13.8551C132.684 14.3925 133.478 15.1067 134.109 15.998V3.71094ZM128.457 29.091C129.481 29.091 130.387 28.8354 131.174 28.3243C131.962 27.8132 132.579 27.1251 133.025 26.2601C133.472 25.382 133.695 24.4187 133.695 23.3702C133.695 22.3086 133.472 21.3453 133.025 20.4803C132.579 19.6022 131.956 18.9075 131.155 18.3964C130.367 17.8853 129.468 17.6297 128.457 17.6297C127.446 17.6297 126.521 17.8918 125.68 18.4161C124.853 18.9272 124.19 19.6153 123.692 20.4803C123.206 21.3453 122.963 22.3086 122.963 23.3702C122.963 24.4318 123.212 25.3951 123.711 26.2601C124.21 27.1251 124.873 27.8132 125.7 28.3243C126.54 28.8354 127.459 29.091 128.457 29.091Z" fill="white"></path><path d="M143.644 33.1998V13.5406H148.449V15.2902C149.118 14.5825 149.919 14.0255 150.851 13.6192C151.783 13.1998 152.787 12.9901 153.864 12.9901C155.229 12.9901 156.483 13.3112 157.625 13.9534C158.78 14.5956 159.699 15.4541 160.382 16.5288C161.078 15.4541 161.997 14.5956 163.139 13.9534C164.281 13.3112 165.534 12.9901 166.9 12.9901C168.344 12.9901 169.65 13.344 170.818 14.0517C172 14.7463 172.939 15.6834 173.634 16.863C174.343 18.0294 174.698 19.3335 174.698 20.7752V33.1998H169.893V22.053C169.893 21.2929 169.703 20.5982 169.322 19.9691C168.954 19.3269 168.455 18.8158 167.825 18.4357C167.208 18.0425 166.513 17.8459 165.738 17.8459C164.963 17.8459 164.261 18.036 163.631 18.4161C163.014 18.783 162.515 19.2811 162.134 19.9102C161.754 20.5392 161.563 21.2535 161.563 22.053V33.1998H156.759V22.053C156.759 21.2535 156.575 20.5392 156.207 19.9102C155.84 19.2811 155.341 18.783 154.711 18.4161C154.08 18.036 153.378 17.8459 152.604 17.8459C151.842 17.8459 151.146 18.0425 150.516 18.4357C149.886 18.8158 149.381 19.3269 149 19.9691C148.632 20.5982 148.449 21.2929 148.449 22.053V33.1998H143.644Z" fill="white"></path><path d="M193.106 13.5406H197.91V33.1998H193.106L192.889 30.7621C192.351 31.6402 191.635 32.3545 190.743 32.9049C189.863 33.4423 188.819 33.7109 187.612 33.7109C186.155 33.7109 184.789 33.4357 183.516 32.8853C182.242 32.3348 181.12 31.5746 180.149 30.6048C179.19 29.6349 178.435 28.5143 177.884 27.243C177.346 25.9718 177.077 24.6087 177.077 23.1539C177.077 21.7516 177.333 20.4344 177.845 19.2024C178.37 17.9704 179.098 16.8892 180.03 15.9586C180.963 15.0281 182.039 14.3007 183.26 13.7765C184.481 13.2522 185.794 12.9901 187.198 12.9901C188.498 12.9901 189.66 13.2784 190.684 13.8551C191.721 14.4318 192.6 15.1657 193.322 16.0569L193.106 13.5406ZM187.494 29.091C188.518 29.091 189.423 28.8354 190.211 28.3243C190.999 27.8132 191.616 27.1251 192.062 26.2601C192.508 25.382 192.732 24.4187 192.732 23.3702C192.732 22.3086 192.508 21.3453 192.062 20.4803C191.616 19.6022 190.992 18.9075 190.191 18.3964C189.404 17.8853 188.504 17.6297 187.494 17.6297C186.483 17.6297 185.557 17.8918 184.717 18.4161C183.89 18.9272 183.227 19.6153 182.728 20.4803C182.242 21.3453 182 22.3086 182 23.3702C182 24.4318 182.249 25.3951 182.748 26.2601C183.247 27.1251 183.91 27.8132 184.737 28.3243C185.577 28.8354 186.496 29.091 187.494 29.091Z" fill="white"></path><path d="M201.854 33.1998L201.834 13.5406H206.639L206.659 15.2902C207.328 14.5825 208.129 14.0255 209.061 13.6192C209.993 13.1998 210.998 12.9901 212.074 12.9901C212.796 12.9901 213.518 13.0949 214.24 13.3046L212.35 18.1408C211.851 17.9442 211.352 17.8459 210.853 17.8459C210.079 17.8459 209.37 18.036 208.726 18.4161C208.096 18.783 207.591 19.2876 207.21 19.9298C206.843 20.5589 206.659 21.2601 206.659 22.0334V33.1998H201.854Z" fill="white"></path><path d="M227.542 18.3374H223.722V33.1998H218.918V18.3374H216.003V13.5406H218.918V7.36756H223.722V13.5406H227.542V18.3374Z" fill="white"></path><path d="M230.5 32.9895C229.812 32.9895 229.223 32.7506 228.734 32.2728C228.245 31.7766 228 31.1885 228 30.5085C228 29.8102 228.245 29.2221 228.734 28.7443C229.223 28.2481 229.812 28 230.5 28C231.17 28 231.75 28.2481 232.239 28.7443C232.746 29.2221 233 29.8102 233 30.5085C233 31.1885 232.746 31.7766 232.239 32.2728C231.75 32.7506 231.17 32.9895 230.5 32.9895Z" fill="#7354EF"></path><path d="M6.54401 10.3511C7.73666 9.26829 9.53582 9.26829 13.1341 9.26829H24.8658C28.4641 9.26829 30.2633 9.26829 31.4559 10.3511C32.6486 11.4339 32.8219 13.2247 33.1685 16.8063L33.9411 24.7906C34.5385 30.9637 34.8372 34.0503 33.0443 36.0251C31.2513 38 28.1503 38 21.9484 38H16.0515C9.84959 38 6.74862 38 4.95565 36.0251C3.16268 34.0503 3.46137 30.9637 4.05877 24.7906L4.83145 16.8063C5.17805 13.2247 5.35136 11.4339 6.54401 10.3511Z" fill="#7354EF"></path><path d="M6.54401 10.3511C7.73666 9.26829 9.53582 9.26829 13.1341 9.26829H24.8658C28.4641 9.26829 30.2633 9.26829 31.4559 10.3511C32.6486 11.4339 32.8219 13.2247 33.1685 16.8063L33.9411 24.7906C34.5385 30.9637 34.8372 34.0503 33.0443 36.0251C31.2513 38 28.1503 38 21.9484 38H16.0515C9.84959 38 6.74862 38 4.95565 36.0251C3.16268 34.0503 3.46137 30.9637 4.05877 24.7906L4.83145 16.8063C5.17805 13.2247 5.35136 11.4339 6.54401 10.3511Z" fill="url(#paint0_linear_19532_24808)" fill-opacity="0.8" style="mix-blend-mode:hard-light"></path><path d="M13.3696 7.4129C12.6027 7.37456 12.0121 6.72182 12.0505 5.95496C12.0478 5.98085 12.1603 5.16747 12.2071 4.97373C12.337 4.43635 12.5808 3.70856 13.0421 2.97049C14.0123 1.41806 15.8413 0 19 0C22.1586 0 23.9876 1.41806 24.9578 2.97049C25.4191 3.70856 25.6629 4.43635 25.7928 4.97373C25.8748 5.31319 25.9494 5.95496 25.9494 5.95496C25.9878 6.72182 25.3972 7.37456 24.6304 7.4129C23.8671 7.45106 23.217 6.86627 23.173 6.10474C23.1597 5.94372 23.128 5.78366 23.0901 5.62688C23.01 5.29535 22.8628 4.86461 22.6 4.44414C22.1221 3.6795 21.1706 2.78049 19 2.78049C16.8293 2.78049 15.8778 3.6795 15.3999 4.44414C15.1371 4.86461 14.9899 5.29535 14.9098 5.62688C14.8719 5.78366 14.8402 5.94373 14.8269 6.10475C14.7829 6.86627 14.1328 7.45106 13.3696 7.4129Z" fill="#7354EF"></path><path d="M13.3696 7.4129C12.6027 7.37456 12.0121 6.72182 12.0505 5.95496C12.0478 5.98085 12.1603 5.16747 12.2071 4.97373C12.337 4.43635 12.5808 3.70856 13.0421 2.97049C14.0123 1.41806 15.8413 0 19 0C22.1586 0 23.9876 1.41806 24.9578 2.97049C25.4191 3.70856 25.6629 4.43635 25.7928 4.97373C25.8748 5.31319 25.9494 5.95496 25.9494 5.95496C25.9878 6.72182 25.3972 7.37456 24.6304 7.4129C23.8671 7.45106 23.217 6.86627 23.173 6.10474C23.1597 5.94372 23.128 5.78366 23.0901 5.62688C23.01 5.29535 22.8628 4.86461 22.6 4.44414C22.1221 3.6795 21.1706 2.78049 19 2.78049C16.8293 2.78049 15.8778 3.6795 15.3999 4.44414C15.1371 4.86461 14.9899 5.29535 14.9098 5.62688C14.8719 5.78366 14.8402 5.94373 14.8269 6.10475C14.7829 6.86627 14.1328 7.45106 13.3696 7.4129Z" fill="url(#paint1_linear_19532_24808)" fill-opacity="0.8" style="mix-blend-mode:hard-light"></path><path d="M6.54401 10.3511C7.73666 9.2683 9.53582 9.2683 13.1341 9.2683H24.8658C28.4641 9.2683 30.2633 9.2683 31.4559 10.3511C32.6486 11.4339 32.8219 13.2247 33.1685 16.8063L33.9411 24.7906C34.5385 30.9637 34.8372 34.0503 33.0443 36.0251C31.2513 38 28.1503 38 21.9484 38H16.0515C9.84959 38 6.74862 38 4.95565 36.0251C3.16268 34.0503 3.46137 30.9637 4.05877 24.7906L4.83145 16.8063C5.17805 13.2247 5.35136 11.4339 6.54401 10.3511ZM6.21523 16.9402L5.44255 24.9245C5.13988 28.0521 4.93006 30.2533 4.99985 31.9242C5.06798 33.5552 5.39777 34.4439 5.98496 35.0906C6.57214 35.7374 7.42489 36.1512 9.04177 36.3762C10.6982 36.6066 12.9093 36.6098 16.0515 36.6098H21.9484C25.0906 36.6098 27.3017 36.6066 28.9581 36.3762C30.575 36.1512 31.4278 35.7374 32.015 35.0906C32.6021 34.4439 32.9319 33.5552 33.0001 31.9242C33.0699 30.2533 32.86 28.0521 32.5574 24.9246L31.7847 16.9402C31.6078 15.1123 31.4853 13.8746 31.2742 12.9516C31.072 12.0673 30.826 11.6569 30.5214 11.3804C30.2168 11.1039 29.7847 10.8986 28.885 10.7825C27.9459 10.6612 26.7022 10.6585 24.8658 10.6585H13.1341C11.2977 10.6585 10.054 10.6612 9.11491 10.7825C8.21525 10.8986 7.7831 11.1039 7.47852 11.3804C7.17393 11.6569 6.92795 12.0673 6.72571 12.9516C6.51462 13.8746 6.39212 15.1123 6.21523 16.9402Z" fill="url(#paint2_linear_19532_24808)" fill-opacity="0.4"></path><path d="M20.063 14.2375L24.6971 17.4814C25.5358 18.0685 25.7398 19.2243 25.1527 20.063C24.5656 20.9017 23.4098 21.1057 22.5711 20.5186L20.3287 18.9489C19.5309 18.3904 18.469 18.3904 17.6712 18.9489L15.4288 20.5186C14.5901 21.1057 13.4343 20.9017 12.8472 20.063C12.2602 19.2243 12.4641 18.0685 13.3028 17.4814L17.937 14.2375C18.5752 13.7907 19.4247 13.7907 20.063 14.2375Z" fill="white"></path><path d="M26.1546 25.8722C26.966 26.4964 27.1178 27.6602 26.4936 28.4717C25.8694 29.2831 24.7056 29.4349 23.8942 28.8107L21.5996 27.0457C21.2948 26.8112 20.8536 27.0285 20.8536 27.413V32.439C20.8536 33.4628 20.0237 34.2927 19 34.2927C17.9762 34.2927 17.1463 33.4628 17.1463 32.439V27.413C17.1463 27.0285 16.7051 26.8112 16.4003 27.0457L14.1058 28.8107C13.2943 29.4349 12.1305 29.2831 11.5063 28.4717C10.8821 27.6602 11.0339 26.4964 11.8454 25.8722L17.8698 21.2381C18.5361 20.7255 19.4639 20.7255 20.1302 21.2381L26.1546 25.8722Z" fill="white"></path><defs><linearGradient id="paint0_linear_19532_24808" x1="12.4534" y1="-2.05264e-07" x2="30.9022" y2="35.1924" gradientUnits="userSpaceOnUse"><stop stop-color="#C5C5C5"></stop><stop offset="0.104167" stop-color="#B4B4B4"></stop><stop offset="0.317708" stop-color="#929292"></stop><stop offset="0.574771" stop-color="#7C7C7C"></stop><stop offset="0.814649" stop-color="#5F5F5F"></stop><stop offset="1" stop-color="#494949"></stop></linearGradient><linearGradient id="paint1_linear_19532_24808" x1="12.4534" y1="-2.05264e-07" x2="30.9022" y2="35.1924" gradientUnits="userSpaceOnUse"><stop stop-color="#C5C5C5"></stop><stop offset="0.104167" stop-color="#B4B4B4"></stop><stop offset="0.317708" stop-color="#929292"></stop><stop offset="0.574771" stop-color="#7C7C7C"></stop><stop offset="0.814649" stop-color="#5F5F5F"></stop><stop offset="1" stop-color="#494949"></stop></linearGradient><linearGradient id="paint2_linear_19532_24808" x1="3.59631" y1="9.2683" x2="18.0958" y2="38.4492" gradientUnits="userSpaceOnUse"><stop stop-color="white"></stop><stop offset="0.638162" stop-color="white" stop-opacity="0"></stop></linearGradient></defs></svg> 