<?xml version="1.0" encoding="UTF-8"?> <svg xmlns="http://www.w3.org/2000/svg" width="72" height="72" viewBox="0 0 72 72" fill="none"><path d="M0 36C0 16.1178 16.1178 0 36 0C55.8822 0 72 16.1178 72 36C72 55.8822 55.8822 72 36 72C16.1178 72 0 55.8822 0 36Z" fill="#E14A5C"></path><path d="M11.0851 28.156C10.6251 28.156 10.1831 28.084 9.75907 27.94C9.33507 27.796 8.96507 27.59 8.64907 27.322C8.33307 27.05 8.10707 26.728 7.97107 26.356L9.14107 25.918C9.20907 26.11 9.33907 26.282 9.53107 26.434C9.72707 26.582 9.95907 26.698 10.2271 26.782C10.4991 26.866 10.7851 26.908 11.0851 26.908C11.4051 26.908 11.7051 26.856 11.9851 26.752C12.2691 26.648 12.4971 26.504 12.6691 26.32C12.8451 26.136 12.9331 25.92 12.9331 25.672C12.9331 25.416 12.8411 25.206 12.6571 25.042C12.4771 24.878 12.2451 24.748 11.9611 24.652C11.6811 24.556 11.3891 24.484 11.0851 24.436C10.4971 24.34 9.96907 24.2 9.50107 24.016C9.03707 23.832 8.66907 23.574 8.39707 23.242C8.12907 22.91 7.99507 22.478 7.99507 21.946C7.99507 21.446 8.13707 21.01 8.42107 20.638C8.70907 20.266 9.08707 19.978 9.55507 19.774C10.0271 19.566 10.5371 19.462 11.0851 19.462C11.5371 19.462 11.9731 19.534 12.3931 19.678C12.8171 19.818 13.1891 20.024 13.5091 20.296C13.8331 20.564 14.0651 20.89 14.2051 21.274L13.0231 21.7C12.9551 21.504 12.8251 21.334 12.6331 21.19C12.4411 21.042 12.2091 20.926 11.9371 20.842C11.6691 20.758 11.3851 20.716 11.0851 20.716C10.7651 20.712 10.4651 20.764 10.1851 20.872C9.90907 20.976 9.68307 21.12 9.50707 21.304C9.33107 21.488 9.24307 21.702 9.24307 21.946C9.24307 22.246 9.32507 22.474 9.48907 22.63C9.65307 22.786 9.87307 22.902 10.1491 22.978C10.4291 23.05 10.7411 23.116 11.0851 23.176C11.6371 23.264 12.1471 23.41 12.6151 23.614C13.0871 23.818 13.4651 24.09 13.7491 24.43C14.0371 24.766 14.1811 25.18 14.1811 25.672C14.1811 26.168 14.0371 26.604 13.7491 26.98C13.4651 27.352 13.0871 27.642 12.6151 27.85C12.1471 28.054 11.6371 28.156 11.0851 28.156Z" fill="white"></path><path d="M20.0364 22H21.2844V28H20.0304L19.9824 27.13C19.8064 27.438 19.5684 27.686 19.2684 27.874C18.9684 28.062 18.6144 28.156 18.2064 28.156C17.7664 28.156 17.3524 28.074 16.9644 27.91C16.5764 27.742 16.2344 27.51 15.9384 27.214C15.6464 26.918 15.4184 26.578 15.2544 26.194C15.0904 25.806 15.0084 25.39 15.0084 24.946C15.0084 24.518 15.0884 24.116 15.2484 23.74C15.4084 23.36 15.6304 23.028 15.9144 22.744C16.1984 22.46 16.5264 22.238 16.8984 22.078C17.2744 21.914 17.6764 21.832 18.1044 21.832C18.5404 21.832 18.9244 21.932 19.2564 22.132C19.5924 22.328 19.8704 22.58 20.0904 22.888L20.0364 22ZM18.1764 26.95C18.5284 26.95 18.8364 26.864 19.1004 26.692C19.3644 26.516 19.5684 26.28 19.7124 25.984C19.8604 25.688 19.9344 25.36 19.9344 25C19.9344 24.636 19.8604 24.306 19.7124 24.01C19.5644 23.714 19.3584 23.48 19.0944 23.308C18.8344 23.132 18.5284 23.044 18.1764 23.044C17.8284 23.044 17.5104 23.132 17.2224 23.308C16.9344 23.484 16.7064 23.72 16.5384 24.016C16.3704 24.312 16.2864 24.64 16.2864 25C16.2864 25.364 16.3724 25.694 16.5444 25.99C16.7204 26.282 16.9504 26.516 17.2344 26.692C17.5224 26.864 17.8364 26.95 18.1764 26.95Z" fill="white"></path><path d="M25.691 28H24.089L21.899 21.988H23.231L24.887 26.56L26.549 21.988H27.875L25.691 28Z" fill="white"></path><path d="M31.2037 28.156C30.6517 28.156 30.1477 28.014 29.6917 27.73C29.2397 27.446 28.8777 27.066 28.6057 26.59C28.3377 26.11 28.2037 25.58 28.2037 25C28.2037 24.56 28.2817 24.15 28.4377 23.77C28.5937 23.386 28.8077 23.05 29.0797 22.762C29.3557 22.47 29.6757 22.242 30.0397 22.078C30.4037 21.914 30.7917 21.832 31.2037 21.832C31.6637 21.832 32.0857 21.928 32.4697 22.12C32.8537 22.308 33.1817 22.57 33.4537 22.906C33.7257 23.238 33.9257 23.622 34.0537 24.058C34.1817 24.49 34.2197 24.95 34.1677 25.438H29.5417C29.5937 25.714 29.6937 25.964 29.8417 26.188C29.9937 26.408 30.1857 26.582 30.4177 26.71C30.6537 26.838 30.9157 26.904 31.2037 26.908C31.5077 26.908 31.7837 26.832 32.0317 26.68C32.2837 26.528 32.4897 26.318 32.6497 26.05L33.9157 26.344C33.6757 26.876 33.3137 27.312 32.8297 27.652C32.3457 27.988 31.8037 28.156 31.2037 28.156ZM29.4997 24.484H32.9077C32.8677 24.196 32.7657 23.936 32.6017 23.704C32.4417 23.468 32.2397 23.282 31.9957 23.146C31.7557 23.006 31.4917 22.936 31.2037 22.936C30.9197 22.936 30.6557 23.004 30.4117 23.14C30.1717 23.276 29.9717 23.462 29.8117 23.698C29.6557 23.93 29.5517 24.192 29.4997 24.484Z" fill="white"></path><path d="M37.9097 25.75V22H39.1577V25.444C39.1577 25.712 39.2237 25.956 39.3557 26.176C39.4877 26.396 39.6637 26.572 39.8837 26.704C40.1037 26.832 40.3457 26.896 40.6097 26.896C40.8777 26.896 41.1197 26.832 41.3357 26.704C41.5557 26.572 41.7297 26.396 41.8577 26.176C41.9897 25.956 42.0557 25.712 42.0557 25.444V22H43.3037L43.3097 28H42.0617L42.0557 27.352C41.8517 27.6 41.5977 27.796 41.2937 27.94C40.9897 28.084 40.6637 28.156 40.3157 28.156C39.8717 28.156 39.4677 28.048 39.1037 27.832C38.7397 27.616 38.4497 27.326 38.2337 26.962C38.0177 26.598 37.9097 26.194 37.9097 25.75Z" fill="white"></path><path d="M45.5383 31H44.2903V22H45.5383V22.882C45.7383 22.574 45.9943 22.324 46.3063 22.132C46.6183 21.94 46.9863 21.844 47.4103 21.844C47.8463 21.844 48.2543 21.926 48.6343 22.09C49.0183 22.254 49.3543 22.482 49.6423 22.774C49.9303 23.062 50.1563 23.396 50.3203 23.776C50.4843 24.156 50.5663 24.564 50.5663 25C50.5663 25.436 50.4843 25.846 50.3203 26.23C50.1563 26.614 49.9303 26.952 49.6423 27.244C49.3543 27.532 49.0183 27.758 48.6343 27.922C48.2543 28.086 47.8463 28.168 47.4103 28.168C46.9863 28.168 46.6183 28.072 46.3063 27.88C45.9943 27.684 45.7383 27.434 45.5383 27.13V31ZM47.3983 23.05C47.0503 23.05 46.7443 23.138 46.4803 23.314C46.2163 23.49 46.0103 23.726 45.8623 24.022C45.7143 24.314 45.6403 24.64 45.6403 25C45.6403 25.36 45.7143 25.688 45.8623 25.984C46.0103 26.28 46.2163 26.516 46.4803 26.692C46.7443 26.868 47.0503 26.956 47.3983 26.956C47.7423 26.956 48.0583 26.87 48.3463 26.698C48.6343 26.522 48.8643 26.286 49.0363 25.99C49.2083 25.694 49.2943 25.364 49.2943 25C49.2943 24.644 49.2083 24.318 49.0363 24.022C48.8683 23.726 48.6403 23.49 48.3523 23.314C48.0643 23.138 47.7463 23.05 47.3983 23.05Z" fill="white"></path><path d="M57.7005 23.248H56.4405L56.4345 28H55.1865L55.1925 23.248H54.2385V22H55.1925L55.1865 20.116H56.4345L56.4405 22H57.7005V23.248Z" fill="white"></path><path d="M61.274 28.156C60.722 28.156 60.218 28.014 59.762 27.73C59.31 27.446 58.948 27.066 58.676 26.59C58.408 26.11 58.274 25.58 58.274 25C58.274 24.56 58.352 24.15 58.508 23.77C58.664 23.386 58.878 23.05 59.15 22.762C59.426 22.47 59.746 22.242 60.11 22.078C60.474 21.914 60.862 21.832 61.274 21.832C61.826 21.832 62.328 21.974 62.78 22.258C63.236 22.542 63.598 22.924 63.866 23.404C64.138 23.884 64.274 24.416 64.274 25C64.274 25.436 64.196 25.844 64.04 26.224C63.884 26.604 63.668 26.94 63.392 27.232C63.12 27.52 62.802 27.746 62.438 27.91C62.078 28.074 61.69 28.156 61.274 28.156ZM61.274 26.908C61.606 26.908 61.904 26.82 62.168 26.644C62.432 26.468 62.64 26.236 62.792 25.948C62.948 25.656 63.026 25.34 63.026 25C63.026 24.652 62.946 24.332 62.786 24.04C62.63 23.748 62.42 23.516 62.156 23.344C61.892 23.168 61.598 23.08 61.274 23.08C60.946 23.08 60.648 23.168 60.38 23.344C60.116 23.52 59.906 23.754 59.75 24.046C59.598 24.338 59.522 24.656 59.522 25C59.522 25.356 59.602 25.678 59.762 25.966C59.922 26.254 60.134 26.484 60.398 26.656C60.666 26.824 60.958 26.908 61.274 26.908Z" fill="white"></path><path d="M10.9157 42.882H17.9557V45.918H10.9157V42.882Z" fill="white"></path><path d="M26.6991 51V47.458H20.1651V44.411L26.0061 35.6H29.7351V44.422H30.9341V47.458H29.7351V51H26.6991ZM23.6741 44.411L26.6991 44.422L26.6881 39.703L23.6741 44.411Z" fill="white"></path><path d="M38.3887 51.286C37.384 51.286 36.4747 51.044 35.6607 50.56C34.854 50.0687 34.2124 49.4197 33.7357 48.613C33.2664 47.799 33.0317 46.9117 33.0317 45.951H36.0677C36.0677 46.3763 36.1704 46.765 36.3757 47.117C36.5884 47.4617 36.8707 47.7367 37.2227 47.942C37.5747 48.1473 37.9634 48.25 38.3887 48.25C38.8067 48.25 39.188 48.1473 39.5327 47.942C39.8847 47.7367 40.1634 47.4617 40.3687 47.117C40.5814 46.765 40.6877 46.3763 40.6877 45.951C40.6877 45.5257 40.5997 45.1333 40.4237 44.774C40.255 44.4147 39.9617 44.1287 39.5437 43.916C39.1257 43.696 38.55 43.586 37.8167 43.586H33.7907L35.4737 35.6H43.1517V38.636H37.9377L37.5417 40.55L38.3997 40.572C39.4484 40.6087 40.3687 40.869 41.1607 41.353C41.96 41.837 42.587 42.4787 43.0417 43.278C43.4964 44.0773 43.7237 44.9683 43.7237 45.951C43.7237 46.677 43.5844 47.3627 43.3057 48.008C43.0344 48.6533 42.653 49.2217 42.1617 49.713C41.6777 50.2043 41.113 50.5893 40.4677 50.868C39.8224 51.1467 39.1294 51.286 38.3887 51.286Z" fill="white"></path><path d="M47.5309 51L56.4189 35.6H59.9169L51.0289 51H47.5309ZM49.4449 42.486C48.7996 42.486 48.2092 42.332 47.6739 42.024C47.1459 41.716 46.7206 41.298 46.3979 40.77C46.0826 40.2347 45.9249 39.6407 45.9249 38.988C45.9249 38.3133 46.0862 37.7157 46.4089 37.195C46.7389 36.667 47.1679 36.2527 47.6959 35.952C48.2312 35.644 48.8142 35.49 49.4449 35.49C50.0829 35.49 50.6659 35.644 51.1939 35.952C51.7292 36.26 52.1546 36.6817 52.4699 37.217C52.7852 37.745 52.9429 38.3353 52.9429 38.988C52.9429 39.6553 52.7779 40.253 52.4479 40.781C52.1252 41.3017 51.6962 41.716 51.1609 42.024C50.6329 42.332 50.0609 42.486 49.4449 42.486ZM49.4449 40.44C49.8409 40.44 50.1819 40.3007 50.4679 40.022C50.7539 39.736 50.8969 39.3913 50.8969 38.988C50.8969 38.5773 50.7539 38.2327 50.4679 37.954C50.1819 37.6753 49.8409 37.536 49.4449 37.536C49.0416 37.536 48.6932 37.6753 48.3999 37.954C48.1139 38.2327 47.9709 38.5773 47.9709 38.988C47.9709 39.3913 48.1139 39.736 48.3999 40.022C48.6932 40.3007 49.0416 40.44 49.4449 40.44ZM58.0029 51.132C57.3502 51.132 56.7562 50.9707 56.2209 50.648C55.6929 50.318 55.2749 49.8853 54.9669 49.35C54.6589 48.8147 54.5049 48.2427 54.5049 47.634C54.5049 46.9667 54.6662 46.369 54.9889 45.841C55.3189 45.3057 55.7479 44.884 56.2759 44.576C56.8039 44.268 57.3796 44.114 58.0029 44.114C58.6776 44.114 59.2789 44.279 59.8069 44.609C60.3349 44.939 60.7529 45.3717 61.0609 45.907C61.3689 46.435 61.5229 47.0107 61.5229 47.634C61.5229 48.272 61.3652 48.8587 61.0499 49.394C60.7346 49.922 60.3092 50.3437 59.7739 50.659C59.2386 50.9743 58.6482 51.132 58.0029 51.132ZM58.0029 49.086C58.4136 49.086 58.7619 48.943 59.0479 48.657C59.3339 48.371 59.4769 48.03 59.4769 47.634C59.4769 47.2233 59.3339 46.875 59.0479 46.589C58.7619 46.303 58.4136 46.16 58.0029 46.16C57.6069 46.16 57.2659 46.303 56.9799 46.589C56.6939 46.875 56.5509 47.2233 56.5509 47.634C56.5509 48.03 56.6939 48.371 56.9799 48.657C57.2659 48.943 57.6069 49.086 58.0029 49.086Z" fill="white"></path></svg> 